<?xml version="1.0" encoding="UTF-8" standalone="no"?>
<!-- Created with Inkscape (http://www.inkscape.org/) -->

<svg
   xmlns:dc="http://purl.org/dc/elements/1.1/"
   xmlns:cc="http://creativecommons.org/ns#"
   xmlns:rdf="http://www.w3.org/1999/02/22-rdf-syntax-ns#"
   xmlns:svg="http://www.w3.org/2000/svg"
   xmlns="http://www.w3.org/2000/svg"
   xmlns:sodipodi="http://sodipodi.sourceforge.net/DTD/sodipodi-0.dtd"
   xmlns:inkscape="http://www.inkscape.org/namespaces/inkscape"
   id="svg3569"
   version="1.1"
   inkscape:version="0.47 r22583"
   width="490"
   height="247"
   xml:space="preserve"
   sodipodi:docname="vergleich.pdf"><metadata
     id="metadata3575"><rdf:RDF><cc:Work
         rdf:about=""><dc:format>image/svg+xml</dc:format><dc:type
           rdf:resource="http://purl.org/dc/dcmitype/StillImage" /><dc:title></dc:title></cc:Work></rdf:RDF></metadata><defs
     id="defs3573"><inkscape:perspective
       sodipodi:type="inkscape:persp3d"
       inkscape:vp_x="0 : 0.5 : 1"
       inkscape:vp_y="0 : 1000 : 0"
       inkscape:vp_z="1 : 0.5 : 1"
       inkscape:persp3d-origin="0.5 : 0.33333333 : 1"
       id="perspective3577" /><clipPath
       clipPathUnits="userSpaceOnUse"
       id="clipPath3587"><path
         d="m 810,5640 0,-3361.2 4488,0 0,3361.2 -4488,0 z"
         id="path3589" /></clipPath><clipPath
       clipPathUnits="userSpaceOnUse"
       id="clipPath3763"><path
         d="m 1393.2,5389.2 0,-2740.8 3480,0 0,2740.8 -3480,0 z"
         id="path3765" /></clipPath><clipPath
       clipPathUnits="userSpaceOnUse"
       id="clipPath3933"><path
         d="m 810,5640 0,-3361.2 4488,0 0,3361.2 -4488,0 z"
         id="path3935" /></clipPath><clipPath
       clipPathUnits="userSpaceOnUse"
       id="clipPath3973"><path
         d="m 1442.4,5338.8 0,-400.8 1273.2,0 0,400.8 -1273.2,0 z"
         id="path3975" /></clipPath><clipPath
       clipPathUnits="userSpaceOnUse"
       id="clipPath3983"><path
         d="m 810,5640 0,-3361.2 4488,0 0,3361.2 -4488,0 z"
         id="path3985" /></clipPath><clipPath
       clipPathUnits="userSpaceOnUse"
       id="clipPath3997"><path
         d="m 1442.4,5338.8 0,-400.8 1273.2,0 0,400.8 -1273.2,0 z"
         id="path3999" /></clipPath><clipPath
       clipPathUnits="userSpaceOnUse"
       id="clipPath4007"><path
         d="m 810,5640 0,-3361.2 4488,0 0,3361.2 -4488,0 z"
         id="path4009" /></clipPath><clipPath
       clipPathUnits="userSpaceOnUse"
       id="clipPath4021"><path
         d="m 1442.4,5338.8 0,-400.8 1273.2,0 0,400.8 -1273.2,0 z"
         id="path4023" /></clipPath></defs><sodipodi:namedview
     pagecolor="#ffffff"
     bordercolor="#666666"
     borderopacity="1"
     objecttolerance="10"
     gridtolerance="10"
     guidetolerance="10"
     inkscape:pageopacity="0"
     inkscape:pageshadow="2"
     inkscape:window-width="1440"
     inkscape:window-height="882"
     id="namedview3571"
     showgrid="false"
     inkscape:zoom="1"
     inkscape:cx="125.42634"
     inkscape:cy="75.892796"
     inkscape:window-x="0"
     inkscape:window-y="0"
     inkscape:window-maximized="1"
     inkscape:current-layer="g3579" /><g
     id="g3579"
     inkscape:groupmode="layer"
     inkscape:label="vergleich"
     transform="matrix(1.25,0,0,-1.25,-129.06035,559.87303)"><path
   id="path3591"
   style="fill:none;stroke:#ffffff;stroke-width:0.50000101;stroke-linecap:butt;stroke-linejoin:round;stroke-miterlimit:10;stroke-opacity:1;stroke-dasharray:none"
   d="m 139.32,264.96 0,273.96 347.88,0 0,-273.96 -347.88,0" /><path
   id="path3593"
   style="fill:none;stroke:#000000;stroke-width:0.50000101;stroke-linecap:butt;stroke-linejoin:round;stroke-miterlimit:10;stroke-opacity:1;stroke-dasharray:none"
   d="m 139.32,264.96 347.88,0" /><path
   id="path3595"
   style="fill:none;stroke:#000000;stroke-width:0.50000101;stroke-linecap:butt;stroke-linejoin:round;stroke-miterlimit:10;stroke-opacity:1;stroke-dasharray:none"
   d="m 139.32,430.12 347.88,0" /><path
   id="path3597"
   style="fill:none;stroke:#000000;stroke-width:0.38827896;stroke-linecap:butt;stroke-linejoin:round;stroke-miterlimit:10;stroke-opacity:1;stroke-dasharray:none"
   d="m 139.32,264.86062 0,165.20876" /><path
   id="path3599"
   style="fill:none;stroke:#000000;stroke-width:0.38842684;stroke-linecap:butt;stroke-linejoin:round;stroke-miterlimit:10;stroke-opacity:1;stroke-dasharray:none"
   d="m 487.2,264.86082 0,165.33463" /><path
   id="path3601"
   style="fill:none;stroke:#000000;stroke-width:0.50000101;stroke-linecap:butt;stroke-linejoin:round;stroke-miterlimit:10;stroke-opacity:1;stroke-dasharray:none"
   d="m 139.32,264.96 347.88,0" /><path
   id="path3605"
   style="fill:none;stroke:#000000;stroke-width:0.50000101;stroke-linecap:butt;stroke-linejoin:round;stroke-miterlimit:10;stroke-opacity:1;stroke-dasharray:none"
   d="m 139.32,264.96 0,3.36" /><text
   transform="scale(1,-1)"
   id="text3611"
   x="136.56"
   y="-252.84"><tspan
     style="font-size:10px;font-variant:normal;font-weight:normal;writing-mode:lr-tb;fill:#000000;fill-opacity:1;fill-rule:nonzero;stroke:none;font-family:Helvetica;-inkscape-font-specification:Helvetica"
     x="136.56"
     y="-252.84"
     id="tspan3613">0</tspan></text>

<path
   id="path3615"
   style="fill:none;stroke:#000000;stroke-width:0.50000101;stroke-linecap:butt;stroke-linejoin:round;stroke-miterlimit:10;stroke-opacity:1;stroke-dasharray:none"
   d="m 189,264.96 0,3.36" /><path
   id="path3617"
   style="fill:none;stroke:#000000;stroke-width:0.50000101;stroke-linecap:butt;stroke-linejoin:round;stroke-miterlimit:10;stroke-opacity:1;stroke-dasharray:none"
   d="m 189,430.12 0,-3.48" /><text
   transform="scale(1,-1)"
   id="text3621"
   x="183.48"
   y="-252.84"><tspan
     style="font-size:10px;font-variant:normal;font-weight:normal;writing-mode:lr-tb;fill:#000000;fill-opacity:1;fill-rule:nonzero;stroke:none;font-family:Helvetica;-inkscape-font-specification:Helvetica"
     x="183.48 189.03999"
     y="-252.84"
     sodipodi:role="line"
     id="tspan3623">10</tspan></text>

<path
   id="path3625"
   style="fill:none;stroke:#000000;stroke-width:0.50000101;stroke-linecap:butt;stroke-linejoin:round;stroke-miterlimit:10;stroke-opacity:1;stroke-dasharray:none"
   d="m 238.68,264.96 0,3.36" /><path
   id="path3627"
   style="fill:none;stroke:#000000;stroke-width:0.50000101;stroke-linecap:butt;stroke-linejoin:round;stroke-miterlimit:10;stroke-opacity:1;stroke-dasharray:none"
   d="m 238.68,430.12 0,-3.48" /><text
   transform="scale(1,-1)"
   id="text3631"
   x="233.16"
   y="-252.84"><tspan
     style="font-size:10px;font-variant:normal;font-weight:normal;writing-mode:lr-tb;fill:#000000;fill-opacity:1;fill-rule:nonzero;stroke:none;font-family:Helvetica;-inkscape-font-specification:Helvetica"
     x="233.16 238.72"
     y="-252.84"
     sodipodi:role="line"
     id="tspan3633">20</tspan></text>

<path
   id="path3635"
   style="fill:none;stroke:#000000;stroke-width:0.50000101;stroke-linecap:butt;stroke-linejoin:round;stroke-miterlimit:10;stroke-opacity:1;stroke-dasharray:none"
   d="m 288.36,264.96 0,3.36" /><path
   id="path3637"
   style="fill:none;stroke:#000000;stroke-width:0.50000101;stroke-linecap:butt;stroke-linejoin:round;stroke-miterlimit:10;stroke-opacity:1;stroke-dasharray:none"
   d="m 288.36,430.12 0,-3.48" /><text
   transform="scale(1,-1)"
   id="text3641"
   x="282.84"
   y="-252.84"><tspan
     style="font-size:10px;font-variant:normal;font-weight:normal;writing-mode:lr-tb;fill:#000000;fill-opacity:1;fill-rule:nonzero;stroke:none;font-family:Helvetica;-inkscape-font-specification:Helvetica"
     x="282.84 288.39999"
     y="-252.84"
     sodipodi:role="line"
     id="tspan3643">30</tspan></text>

<path
   id="path3645"
   style="fill:none;stroke:#000000;stroke-width:0.50000101;stroke-linecap:butt;stroke-linejoin:round;stroke-miterlimit:10;stroke-opacity:1;stroke-dasharray:none"
   d="m 338.04,264.96 0,3.36" /><path
   id="path3647"
   style="fill:none;stroke:#000000;stroke-width:0.50000101;stroke-linecap:butt;stroke-linejoin:round;stroke-miterlimit:10;stroke-opacity:1;stroke-dasharray:none"
   d="m 338.04,430.12 0,-3.48" /><text
   transform="scale(1,-1)"
   id="text3651"
   x="332.51999"
   y="-252.84"><tspan
     style="font-size:10px;font-variant:normal;font-weight:normal;writing-mode:lr-tb;fill:#000000;fill-opacity:1;fill-rule:nonzero;stroke:none;font-family:Helvetica;-inkscape-font-specification:Helvetica"
     x="332.51999 338.07999"
     y="-252.84"
     sodipodi:role="line"
     id="tspan3653">40</tspan></text>

<path
   id="path3655"
   style="fill:none;stroke:#000000;stroke-width:0.50000101;stroke-linecap:butt;stroke-linejoin:round;stroke-miterlimit:10;stroke-opacity:1;stroke-dasharray:none"
   d="m 387.72,264.96 0,3.36" /><path
   id="path3657"
   style="fill:none;stroke:#000000;stroke-width:0.50000101;stroke-linecap:butt;stroke-linejoin:round;stroke-miterlimit:10;stroke-opacity:1;stroke-dasharray:none"
   d="m 387.72,430.12 0,-3.48" /><text
   transform="scale(1,-1)"
   id="text3661"
   x="382.20001"
   y="-252.84"><tspan
     style="font-size:10px;font-variant:normal;font-weight:normal;writing-mode:lr-tb;fill:#000000;fill-opacity:1;fill-rule:nonzero;stroke:none;font-family:Helvetica;-inkscape-font-specification:Helvetica"
     x="382.20001 387.76001"
     y="-252.84"
     sodipodi:role="line"
     id="tspan3663">50</tspan></text>

<path
   id="path3665"
   style="fill:none;stroke:#000000;stroke-width:0.50000101;stroke-linecap:butt;stroke-linejoin:round;stroke-miterlimit:10;stroke-opacity:1;stroke-dasharray:none"
   d="m 437.4,264.96 0,3.36" /><path
   id="path3667"
   style="fill:none;stroke:#000000;stroke-width:0.50000101;stroke-linecap:butt;stroke-linejoin:round;stroke-miterlimit:10;stroke-opacity:1;stroke-dasharray:none"
   d="m 437.4,430.12 0,-3.48" /><text
   transform="scale(1,-1)"
   id="text3671"
   x="431.88"
   y="-252.84"><tspan
     style="font-size:10px;font-variant:normal;font-weight:normal;writing-mode:lr-tb;fill:#000000;fill-opacity:1;fill-rule:nonzero;stroke:none;font-family:Helvetica;-inkscape-font-specification:Helvetica"
     x="431.88 437.44"
     y="-252.84"
     sodipodi:role="line"
     id="tspan3673">60</tspan></text>

<path
   id="path3675"
   style="fill:none;stroke:#000000;stroke-width:0.50000101;stroke-linecap:butt;stroke-linejoin:round;stroke-miterlimit:10;stroke-opacity:1;stroke-dasharray:none"
   d="m 487.2,264.96 0,3.36" /><text
   transform="scale(1,-1)"
   id="text3681"
   x="481.67999"
   y="-252.84"><tspan
     style="font-size:10px;font-variant:normal;font-weight:normal;writing-mode:lr-tb;fill:#000000;fill-opacity:1;fill-rule:nonzero;stroke:none;font-family:Helvetica;-inkscape-font-specification:Helvetica"
     x="481.67999 487.23999"
     y="-252.84"
     sodipodi:role="line"
     id="tspan3683">70</tspan></text>

<path
   id="path3685"
   style="fill:none;stroke:#000000;stroke-width:0.50000101;stroke-linecap:butt;stroke-linejoin:round;stroke-miterlimit:10;stroke-opacity:1;stroke-dasharray:none"
   d="m 139.32,264.96 3.36,0" /><path
   id="path3687"
   style="fill:none;stroke:#000000;stroke-width:0.50000101;stroke-linecap:butt;stroke-linejoin:round;stroke-miterlimit:10;stroke-opacity:1;stroke-dasharray:none"
   d="m 487.2,264.96 -3.48,0" /><text
   transform="scale(1,-1)"
   id="text3691"
   x="111.48"
   y="-261.35999"><tspan
     style="font-size:10px;font-variant:normal;font-weight:normal;writing-mode:lr-tb;fill:#000000;fill-opacity:1;fill-rule:nonzero;stroke:none;font-family:Helvetica;-inkscape-font-specification:Helvetica"
     x="111.48 117.04 119.82 125.38 130.94"
     y="-261.35999"
     sodipodi:role="line"
     id="tspan3693">4.815</tspan></text>

<path
   id="path3695"
   style="fill:none;stroke:#000000;stroke-width:0.50000101;stroke-linecap:butt;stroke-linejoin:round;stroke-miterlimit:10;stroke-opacity:1;stroke-dasharray:none"
   d="m 139.32,319.68 3.36,0" /><path
   id="path3697"
   style="fill:none;stroke:#000000;stroke-width:0.50000101;stroke-linecap:butt;stroke-linejoin:round;stroke-miterlimit:10;stroke-opacity:1;stroke-dasharray:none"
   d="m 487.2,319.68 -3.48,0" /><text
   transform="scale(1,-1)"
   id="text3701"
   x="105.96"
   y="-316.07999"><tspan
     style="font-size:10px;font-variant:normal;font-weight:normal;writing-mode:lr-tb;fill:#000000;fill-opacity:1;fill-rule:nonzero;stroke:none;font-family:Helvetica;-inkscape-font-specification:Helvetica"
     x="105.96 111.52 114.3 119.86 125.42 130.98"
     y="-316.07999"
     sodipodi:role="line"
     id="tspan3703">4.8155</tspan></text>

<path
   id="path3705"
   style="fill:none;stroke:#000000;stroke-width:0.50000101;stroke-linecap:butt;stroke-linejoin:round;stroke-miterlimit:10;stroke-opacity:1;stroke-dasharray:none"
   d="m 139.32,374.52 3.36,0" /><path
   id="path3707"
   style="fill:none;stroke:#000000;stroke-width:0.50000101;stroke-linecap:butt;stroke-linejoin:round;stroke-miterlimit:10;stroke-opacity:1;stroke-dasharray:none"
   d="m 487.2,374.52 -3.48,0" /><text
   transform="scale(1,-1)"
   id="text3711"
   x="111.48"
   y="-370.92001"><tspan
     style="font-size:10px;font-variant:normal;font-weight:normal;writing-mode:lr-tb;fill:#000000;fill-opacity:1;fill-rule:nonzero;stroke:none;font-family:Helvetica;-inkscape-font-specification:Helvetica"
     x="111.48 117.04 119.82 125.38 130.94"
     y="-370.92001"
     sodipodi:role="line"
     id="tspan3713">4.816</tspan></text>

<text
   transform="scale(1,-1)"
   id="text3721"
   x="105.96"
   y="-425.64001"><tspan
     style="font-size:10px;font-variant:normal;font-weight:normal;writing-mode:lr-tb;fill:#000000;fill-opacity:1;fill-rule:nonzero;stroke:none;font-family:Helvetica;-inkscape-font-specification:Helvetica"
     x="105.96 111.52 114.3 119.86 125.42 130.98"
     y="-425.64001"
     sodipodi:role="line"
     id="tspan3723">4.8165</tspan></text>

<path
   d="m 65.75,143.40625 c -1.021325,1e-5 -1.802574,0.40903 -2.34375,1.21875 -0.53711,0.80567 -0.812501,1.96192 -0.8125,3.5 -10e-7,1.53402 0.27539,2.72152 0.8125,3.53125 0.541176,0.80566 1.322425,1.1875 2.34375,1.1875 1.021317,0 1.775385,-0.38184 2.3125,-1.1875 0.541172,-0.80973 0.812493,-1.99723 0.8125,-3.53125 -7e-6,-1.53808 -0.271328,-2.69433 -0.8125,-3.5 -0.537115,-0.80972 -1.291183,-1.21874 -2.3125,-1.21875 z m -7.375,0.15625 -2.1875,0.4375 0,1.125 2.1875,-0.4375 0,6.9375 -2,0 0,1.0625 5.25,0 0,-1.0625 -2.03125,0 0,-8.0625 -1.21875,0 z m 7.375,0.8125 c 0.63883,1e-5 1.120112,0.31088 1.4375,0.9375 0.321446,0.62257 0.468744,1.55925 0.46875,2.8125 -6e-6,1.24919 -0.147304,2.18587 -0.46875,2.8125 -0.317388,0.62256 -0.79867,0.9375 -1.4375,0.9375 -0.634769,0 -1.116051,-0.31494 -1.4375,-0.9375 -0.317385,-0.62663 -0.500002,-1.56331 -0.5,-2.8125 -2e-6,-1.25325 0.182615,-2.18993 0.5,-2.8125 0.321449,-0.62662 0.802731,-0.93749 1.4375,-0.9375 z m -20.0625,1.46875 2.40625,3.25 -2.65625,3.59375 1.34375,0 L 48.75,150 l 2,2.6875 1.3125,0 -2.59375,-3.53125 2.46875,-3.3125 -1.3125,0 -1.8125,2.4375 -1.8125,-2.4375 -1.3125,0 z"
   transform="matrix(0.8,0,0,-0.8,103.24828,556.69842)"
   id="text3741"
   sodipodi:nodetypes="csssssssccccccccccccccssssssscccccccccccccc" /><text
   transform="scale(1,-1)"
   id="text3747"
   x="158.16"
   y="-440.68018"><tspan
     style="font-size:6.66666985px;font-variant:normal;font-weight:normal;writing-mode:lr-tb;fill:#000000;fill-opacity:1;fill-rule:nonzero;stroke:none;font-family:Helvetica;-inkscape-font-specification:Helvetica"
     x="158.16 162.05333"
     y="-440.68018"
     sodipodi:role="line"
     id="tspan3749">−3</tspan></text>

<path
   id="path3751"
   style="fill:none;stroke:#000000;stroke-width:0.50000101;stroke-linecap:butt;stroke-linejoin:round;stroke-miterlimit:10;stroke-opacity:1;stroke-dasharray:none"
   d="m 139.32,264.96 347.88,0" /><path
   id="path3753"
   style="fill:none;stroke:#000000;stroke-width:0.50000101;stroke-linecap:butt;stroke-linejoin:round;stroke-miterlimit:10;stroke-opacity:1;stroke-dasharray:none"
   d="m 139.32,430.12 347.88,0" /><path
   id="path3785"
   style="fill:none;stroke:#00ff00;stroke-width:1.30000000000000004;stroke-linecap:butt;stroke-linejoin:round;stroke-miterlimit:10;stroke-opacity:1;stroke-dasharray:none;stroke-dashoffset:0"
   d="m 338.64,425.4 0.12,0.12 0.12,0.12 0.12,0 0.12,0.12 0.12,0.12 0.12,0 0.12,0.12 0.12,0.12 0.12,0 0.12,0.12 0.12,0.12 0.12,0 0.12,0.12 0.12,0.12 0.12,0 0.12,0.12 0.12,0 0.12,0.12 0.12,0.12 0.12,0 0.12,0.12 0.12,0.12 0.12,0 0.12,0.12 0.12,0.12 0.12,0 0.12,0.12 0.12,0.12 0.12,0 0.12,0.12 0.12,0.12 0.12,0 0.12,0.12 0.12,0.12 0.12,0 0.12,0.12 0.12,0.12 0.12,0 0.12,0.12 0.12,0.12 0.12,0 0.12,0.12 0.12,0.12 0.12,0 0.12,0.12 0.12,0 0.12,0.12 0.12,0.12 0.12,0 0.12,0.12 0.12,0.12 0.12,0 0.12,0.12 0.12,0.12 0.12,0 0.12,0.12 0.12,0.12 0.12,0"
   sodipodi:nodetypes="ccccccccccccccccccccccccccccccccccccccccccccccccccccccccccc" /><path
   id="path3787"
   style="fill:none;stroke:#00ff00;stroke-width:1.30000000000000004;stroke-linecap:butt;stroke-linejoin:round;stroke-miterlimit:10;stroke-opacity:1;stroke-dasharray:none;stroke-dashoffset:0"
   d="m 326.76,417.72 0.12,0 0.12,0.12 0.12,0 0.12,0.12 0.12,0.12 0.12,0 0.12,0.12 0.12,0.12 0.12,0 0.12,0.12 0.12,0.12 0.12,0 0.12,0.12 0.12,0.12 0.12,0 0.12,0.12 0.12,0.12 0.12,0 0.12,0.12 0.12,0.12 0.12,0 0.12,0.12 0.12,0.12 0.12,0 0.12,0.12 0.12,0.12 0.12,0 0.12,0.12 0.12,0 0.12,0.12 0.12,0.12 0.12,0 0.12,0.12 0.12,0.12 0.12,0 0.12,0.12 0.12,0.12 0.12,0 0.12,0.12 0.12,0.12 0.12,0 0.12,0.12 0.12,0.12 0.12,0 0.12,0.12 0.12,0.12 0.12,0 0.12,0.12 0.12,0.12 0.12,0 0.12,0.12 0.12,0.12 0.12,0 0.12,0.12 0.12,0.12 0.12,0 0.12,0.12 0.12,0 0.12,0.12 0.12,0.12 0.12,0 0.12,0.12 0.12,0.12 0.12,0 0.12,0.12 0.12,0.12 0.12,0 0.12,0.12 0.12,0.12 0.12,0 0.12,0.12 0.12,0.12 0.12,0 0.12,0.12 0.12,0.12 0.12,0 0.12,0.12 0.12,0.12 0.12,0 0.12,0.12 0.12,0.12 0.12,0 0.12,0.12 0.12,0.12 0.12,0 0.12,0.12 0.12,0 0.12,0.12 0.12,0.12 0.12,0 0.12,0.12 0.12,0.12 0.12,0 0.12,0.12 0.12,0.12 0.12,0 0.12,0.12 0.12,0.12 0.12,0" /><path
   id="path3789"
   style="fill:none;stroke:#00ff00;stroke-width:1.30000000000000004;stroke-linecap:butt;stroke-linejoin:round;stroke-miterlimit:10;stroke-opacity:1;stroke-dasharray:none;stroke-dashoffset:0"
   d="m 314.88,409.92 0.12,0 0.12,0.12 0.12,0.12 0.12,0 0.12,0.12 0.12,0.12 0.12,0 0.12,0.12 0.12,0.12 0.12,0 0.12,0.12 0.12,0.12 0.12,0 0.12,0.12 0.12,0.12 0.12,0 0.12,0.12 0.12,0 0.12,0.12 0.12,0.12 0.12,0 0.12,0.12 0.12,0.12 0.12,0 0.12,0.12 0.12,0.12 0.12,0 0.12,0.12 0.12,0.12 0.12,0 0.12,0.12 0.12,0.12 0.12,0 0.12,0.12 0.12,0.12 0.12,0 0.12,0.12 0.12,0.12 0.12,0 0.12,0.12 0.12,0.12 0.12,0 0.12,0.12 0.12,0 0.12,0.12 0.12,0.12 0.12,0 0.12,0.12 0.12,0.12 0.12,0 0.12,0.12 0.12,0.12 0.12,0 0.12,0.12 0.12,0.12 0.12,0 0.12,0.12 0.12,0.12 0.12,0 0.12,0.12 0.12,0.12 0.12,0 0.12,0.12 0.12,0.12 0.12,0 0.12,0.12 0.12,0.12 0.12,0 0.12,0.12 0.12,0.12 0.12,0 0.12,0.12 0.12,0 0.12,0.12 0.12,0.12 0.12,0 0.12,0.12 0.12,0.12 0.12,0 0.12,0.12 0.12,0.12 0.12,0 0.12,0.12 0.12,0.12 0.12,0 0.12,0.12 0.12,0.12 0.12,0 0.12,0.12 0.12,0.12 0.12,0 0.12,0.12 0.12,0.12 0.12,0 0.12,0.12 0.12,0.12 0.12,0 0.12,0.12 0.12,0.12" /><path
   id="path3791"
   style="fill:none;stroke:#00ff00;stroke-width:1.30000000000000004;stroke-linecap:butt;stroke-linejoin:round;stroke-miterlimit:10;stroke-opacity:1;stroke-dasharray:none;stroke-dashoffset:0"
   d="m 303,402.12 0.12,0.12 0.12,0 0.12,0.12 0.12,0 0.12,0.12 0.12,0.12 0.12,0 0.12,0.12 0.12,0.12 0.12,0 0.12,0.12 0.12,0.12 0.12,0 0.12,0.12 0.12,0.12 0.12,0 0.12,0.12 0.12,0.12 0.12,0 0.12,0.12 0.12,0.12 0.12,0 0.12,0.12 0.12,0.12 0.12,0 0.12,0.12 0.12,0.12 0.12,0 0.12,0.12 0.12,0.12 0.12,0 0.12,0.12 0.12,0 0.12,0.12 0.12,0.12 0.12,0 0.12,0.12 0.12,0.12 0.12,0 0.12,0.12 0.12,0.12 0.12,0 0.12,0.12 0.12,0.12 0.12,0 0.12,0.12 0.12,0.12 0.12,0 0.12,0.12 0.12,0.12 0.12,0 0.12,0.12 0.12,0.12 0.12,0 0.12,0.12 0.12,0.12 0.12,0 0.12,0.12 0.12,0 0.12,0.12 0.12,0.12 0.12,0 0.12,0.12 0.12,0.12 0.12,0 0.12,0.12 0.12,0.12 0.12,0 0.12,0.12 0.12,0.12 0.12,0 0.12,0.12 0.12,0.12 0.12,0 0.12,0.12 0.12,0.12 0.12,0 0.12,0.12 0.12,0.12 0.12,0 0.12,0.12 0.12,0.12 0.12,0 0.12,0.12 0.12,0.12 0.12,0 0.12,0.12 0.12,0 0.12,0.12 0.12,0.12 0.12,0 0.12,0.12 0.12,0.12 0.12,0 0.12,0.12 0.12,0.12 0.12,0 0.12,0.12 0.12,0.12" /><path
   id="path3793"
   style="fill:none;stroke:#00ff00;stroke-width:1.30000000000000004;stroke-linecap:butt;stroke-linejoin:round;stroke-miterlimit:10;stroke-opacity:1;stroke-dasharray:none;stroke-dashoffset:0"
   d="m 291.12,394.32 0.12,0.12 0.12,0 0.12,0.12 0.12,0.12 0.12,0 0.12,0.12 0.12,0.12 0.12,0 0.12,0.12 0.12,0.12 0.12,0 0.12,0.12 0.12,0.12 0.12,0 0.12,0.12 0.12,0 0.12,0.12 0.12,0.12 0.12,0 0.12,0.12 0.12,0.12 0.12,0 0.12,0.12 0.12,0.12 0.12,0 0.12,0.12 0.12,0.12 0.12,0 0.12,0.12 0.12,0.12 0.12,0 0.12,0.12 0.12,0.12 0.12,0 0.12,0.12 0.12,0.12 0.12,0 0.12,0.12 0.12,0.12 0.12,0 0.12,0.12 0.12,0.12 0.12,0 0.12,0.12 0.12,0 0.12,0.12 0.12,0.12 0.12,0 0.12,0.12 0.12,0.12 0.12,0 0.12,0.12 0.12,0.12 0.12,0 0.12,0.12 0.12,0.12 0.12,0 0.12,0.12 0.12,0.12 0.12,0 0.12,0.12 0.12,0.12 0.12,0 0.12,0.12 0.12,0.12 0.12,0 0.12,0.12 0.12,0.12 0.12,0 0.12,0.12 0.12,0.12 0.12,0 0.12,0.12 0.12,0 0.12,0.12 0.12,0.12 0.12,0 0.12,0.12 0.12,0.12 0.12,0 0.12,0.12 0.12,0.12 0.12,0 0.12,0.12 0.12,0.12 0.12,0 0.12,0.12 0.12,0.12 0.12,0 0.12,0.12 0.12,0.12 0.12,0 0.12,0.12 0.12,0.12 0.12,0 0.12,0.12 0.12,0.12 0.12,0 0.12,0.12" /><path
   id="path3795"
   style="fill:none;stroke:#00ff00;stroke-width:1.30000000000000004;stroke-linecap:butt;stroke-linejoin:round;stroke-miterlimit:10;stroke-opacity:1;stroke-dasharray:none;stroke-dashoffset:0"
   d="m 279.24,386.52 0.12,0.12 0.12,0 0.12,0.12 0.12,0.12 0.12,0 0.12,0.12 0.12,0.12 0.12,0 0.12,0.12 0.12,0.12 0.12,0 0.12,0.12 0.12,0.12 0.12,0 0.12,0.12 0.12,0.12 0.12,0 0.12,0.12 0.12,0.12 0.12,0 0.12,0.12 0.12,0.12 0.12,0 0.12,0.12 0.12,0.12 0.12,0 0.12,0.12 0.12,0.12 0.12,0 0.12,0.12 0.12,0 0.12,0.12 0.12,0.12 0.12,0 0.12,0.12 0.12,0.12 0.12,0 0.12,0.12 0.12,0.12 0.12,0 0.12,0.12 0.12,0.12 0.12,0 0.12,0.12 0.12,0.12 0.12,0 0.12,0.12 0.12,0.12 0.12,0 0.12,0.12 0.12,0.12 0.12,0 0.12,0.12 0.12,0.12 0.12,0 0.12,0.12 0.12,0.12 0.12,0 0.12,0.12 0.12,0 0.12,0.12 0.12,0.12 0.12,0 0.12,0.12 0.12,0.12 0.12,0 0.12,0.12 0.12,0.12 0.12,0 0.12,0.12 0.12,0.12 0.12,0 0.12,0.12 0.12,0.12 0.12,0 0.12,0.12 0.12,0.12 0.12,0 0.12,0.12 0.12,0.12 0.12,0 0.12,0.12 0.12,0.12 0.12,0 0.12,0.12 0.12,0.12 0.12,0 0.12,0.12 0.12,0 0.12,0.12 0.12,0.12 0.12,0 0.12,0.12 0.12,0.12 0.12,0 0.12,0.12 0.12,0.12 0.12,0 0.12,0.12" /><path
   id="path3797"
   style="fill:none;stroke:#00ff00;stroke-width:1.30000000000000004;stroke-linecap:butt;stroke-linejoin:round;stroke-miterlimit:10;stroke-opacity:1;stroke-dasharray:none;stroke-dashoffset:0"
   d="m 267.36,378.72 0.12,0.12 0.12,0.12 0.12,0 0.12,0.12 0.12,0.12 0.12,0 0.12,0.12 0.12,0.12 0.12,0 0.12,0.12 0.12,0.12 0.12,0 0.12,0.12 0.12,0.12 0.12,0 0.12,0.12 0.12,0.12 0.12,0 0.12,0.12 0.12,0 0.12,0.12 0.12,0.12 0.12,0 0.12,0.12 0.12,0.12 0.12,0 0.12,0.12 0.12,0.12 0.12,0 0.12,0.12 0.12,0.12 0.12,0 0.12,0.12 0.12,0.12 0.12,0 0.12,0.12 0.12,0.12 0.12,0 0.12,0.12 0.12,0.12 0.12,0 0.12,0.12 0.12,0.12 0.12,0 0.12,0.12 0.12,0 0.12,0.12 0.12,0.12 0.12,0 0.12,0.12 0.12,0.12 0.12,0 0.12,0.12 0.12,0.12 0.12,0 0.12,0.12 0.12,0.12 0.12,0 0.12,0.12 0.12,0.12 0.12,0 0.12,0.12 0.12,0.12 0.12,0 0.12,0.12 0.12,0.12 0.12,0 0.12,0.12 0.12,0.12 0.12,0 0.12,0.12 0.12,0.12 0.12,0 0.12,0.12 0.12,0 0.12,0.12 0.12,0.12 0.12,0 0.12,0.12 0.12,0.12 0.12,0 0.12,0.12 0.12,0.12 0.12,0 0.12,0.12 0.12,0.12 0.12,0 0.12,0.12 0.12,0.12 0.12,0 0.12,0.12 0.12,0.12 0.12,0 0.12,0.12 0.12,0.12 0.12,0 0.12,0.12 0.12,0.12 0.12,0" /><path
   id="path3799"
   style="fill:none;stroke:#00ff00;stroke-width:1.30000000000000004;stroke-linecap:butt;stroke-linejoin:round;stroke-miterlimit:10;stroke-opacity:1;stroke-dasharray:none;stroke-dashoffset:0"
   d="m 255.48,371.04 0.12,0 0.12,0.12 0.12,0.12 0.12,0 0.12,0.12 0.12,0 0.12,0.12 0.12,0.12 0.12,0 0.12,0.12 0.12,0.12 0.12,0 0.12,0.12 0.12,0.12 0.12,0 0.12,0.12 0.12,0.12 0.12,0 0.12,0.12 0.12,0.12 0.12,0 0.12,0.12 0.12,0.12 0.12,0 0.12,0.12 0.12,0.12 0.12,0 0.12,0.12 0.12,0.12 0.12,0 0.12,0.12 0.12,0.12 0.12,0 0.12,0.12 0.12,0 0.12,0.12 0.12,0.12 0.12,0 0.12,0.12 0.12,0.12 0.12,0 0.12,0.12 0.12,0.12 0.12,0 0.12,0.12 0.12,0.12 0.12,0 0.12,0.12 0.12,0.12 0.12,0 0.12,0.12 0.12,0.12 0.12,0 0.12,0.12 0.12,0.12 0.12,0 0.12,0.12 0.12,0.12 0.12,0 0.12,0.12 0.12,0 0.12,0.12 0.12,0.12 0.12,0 0.12,0.12 0.12,0.12 0.12,0 0.12,0.12 0.12,0.12 0.12,0 0.12,0.12 0.12,0.12 0.12,0 0.12,0.12 0.12,0.12 0.12,0 0.12,0.12 0.12,0.12 0.12,0 0.12,0.12 0.12,0.12 0.12,0 0.12,0.12 0.12,0.12 0.12,0 0.12,0.12 0.12,0.12 0.12,0 0.12,0.12 0.12,0 0.12,0.12 0.12,0.12 0.12,0 0.12,0.12 0.12,0.12 0.12,0 0.12,0.12 0.12,0.12 0.12,0" /><path
   id="path3801"
   style="fill:none;stroke:#00ff00;stroke-width:1.30000000000000004;stroke-linecap:butt;stroke-linejoin:round;stroke-miterlimit:10;stroke-opacity:1;stroke-dasharray:none;stroke-dashoffset:0"
   d="m 243.6,363.24 0.12,0 0.12,0.12 0.12,0.12 0.12,0 0.12,0.12 0.12,0.12 0.12,0 0.12,0.12 0.12,0.12 0.12,0 0.12,0.12 0.12,0.12 0.12,0 0.12,0.12 0.12,0.12 0.12,0 0.12,0.12 0.12,0.12 0.12,0 0.12,0.12 0.12,0 0.12,0.12 0.12,0.12 0.12,0 0.12,0.12 0.12,0.12 0.12,0 0.12,0.12 0.12,0.12 0.12,0 0.12,0.12 0.12,0.12 0.12,0 0.12,0.12 0.12,0.12 0.12,0 0.12,0.12 0.12,0.12 0.12,0 0.12,0.12 0.12,0.12 0.12,0 0.12,0.12 0.12,0.12 0.12,0 0.12,0.12 0.12,0.12 0.12,0 0.12,0.12 0.12,0 0.12,0.12 0.12,0.12 0.12,0 0.12,0.12 0.12,0.12 0.12,0 0.12,0.12 0.12,0.12 0.12,0 0.12,0.12 0.12,0.12 0.12,0 0.12,0.12 0.12,0.12 0.12,0 0.12,0.12 0.12,0.12 0.12,0 0.12,0.12 0.12,0.12 0.12,0 0.12,0.12 0.12,0.12 0.12,0 0.12,0.12 0.12,0 0.12,0.12 0.12,0.12 0.12,0 0.12,0.12 0.12,0.12 0.12,0 0.12,0.12 0.12,0.12 0.12,0 0.12,0.12 0.12,0.12 0.12,0 0.12,0.12 0.12,0.12 0.12,0 0.12,0.12 0.12,0.12 0.12,0 0.12,0.12 0.12,0.12 0.12,0 0.12,0.12 0.12,0.12" /><path
   id="path3803"
   style="fill:none;stroke:#00ff00;stroke-width:1.30000000000000004;stroke-linecap:butt;stroke-linejoin:round;stroke-miterlimit:10;stroke-opacity:1;stroke-dasharray:none;stroke-dashoffset:0"
   d="m 231.72,355.44 0.12,0.12 0.12,0 0.12,0.12 0.12,0.12 0.12,0 0.12,0.12 0.12,0 0.12,0.12 0.12,0.12 0.12,0 0.12,0.12 0.12,0.12 0.12,0 0.12,0.12 0.12,0.12 0.12,0 0.12,0.12 0.12,0.12 0.12,0 0.12,0.12 0.12,0.12 0.12,0 0.12,0.12 0.12,0.12 0.12,0 0.12,0.12 0.12,0.12 0.12,0 0.12,0.12 0.12,0.12 0.12,0 0.12,0.12 0.12,0.12 0.12,0 0.12,0.12 0.12,0 0.12,0.12 0.12,0.12 0.12,0 0.12,0.12 0.12,0.12 0.12,0 0.12,0.12 0.12,0.12 0.12,0 0.12,0.12 0.12,0.12 0.12,0 0.12,0.12 0.12,0.12 0.12,0 0.12,0.12 0.12,0.12 0.12,0 0.12,0.12 0.12,0.12 0.12,0 0.12,0.12 0.12,0.12 0.12,0 0.12,0.12 0.12,0 0.12,0.12 0.12,0.12 0.12,0 0.12,0.12 0.12,0.12 0.12,0 0.12,0.12 0.12,0.12 0.12,0 0.12,0.12 0.12,0.12 0.12,0 0.12,0.12 0.12,0.12 0.12,0 0.12,0.12 0.12,0.12 0.12,0 0.12,0.12 0.12,0.12 0.12,0 0.12,0.12 0.12,0.12 0.12,0 0.12,0.12 0.12,0.12 0.12,0 0.12,0.12 0.12,0 0.12,0.12 0.12,0.12 0.12,0 0.12,0.12 0.12,0.12 0.12,0 0.12,0.12 0.12,0.12" /><path
   id="path3805"
   style="fill:none;stroke:#00ff00;stroke-width:1.30000000000000004;stroke-linecap:butt;stroke-linejoin:round;stroke-miterlimit:10;stroke-opacity:1;stroke-dasharray:none;stroke-dashoffset:0"
   d="m 219.84,347.64 0.12,0.12 0.12,0 0.12,0.12 0.12,0.12 0.12,0 0.12,0.12 0.12,0.12 0.12,0 0.12,0.12 0.12,0.12 0.12,0 0.12,0.12 0.12,0.12 0.12,0 0.12,0.12 0.12,0.12 0.12,0 0.12,0.12 0.12,0.12 0.12,0 0.12,0.12 0.12,0 0.12,0.12 0.12,0.12 0.12,0 0.12,0.12 0.12,0.12 0.12,0 0.12,0.12 0.12,0.12 0.12,0 0.12,0.12 0.12,0.12 0.12,0 0.12,0.12 0.12,0.12 0.12,0 0.12,0.12 0.12,0.12 0.12,0 0.12,0.12 0.12,0.12 0.12,0 0.12,0.12 0.12,0.12 0.12,0 0.12,0.12 0.12,0.12 0.12,0 0.12,0.12 0.12,0 0.12,0.12 0.12,0.12 0.12,0 0.12,0.12 0.12,0.12 0.12,0 0.12,0.12 0.12,0.12 0.12,0 0.12,0.12 0.12,0.12 0.12,0 0.12,0.12 0.12,0.12 0.12,0 0.12,0.12 0.12,0.12 0.12,0 0.12,0.12 0.12,0.12 0.12,0 0.12,0.12 0.12,0.12 0.12,0 0.12,0.12 0.12,0 0.12,0.12 0.12,0.12 0.12,0 0.12,0.12 0.12,0.12 0.12,0 0.12,0.12 0.12,0.12 0.12,0 0.12,0.12 0.12,0.12 0.12,0 0.12,0.12 0.12,0.12 0.12,0 0.12,0.12 0.12,0.12 0.12,0 0.12,0.12 0.12,0.12 0.12,0 0.12,0.12" /><path
   id="path3807"
   style="fill:none;stroke:#00ff00;stroke-width:1.30000000000000004;stroke-linecap:butt;stroke-linejoin:round;stroke-miterlimit:10;stroke-opacity:1;stroke-dasharray:none;stroke-dashoffset:0"
   d="m 207.96,339.84 0.12,0.12 0.12,0.12 0.12,0 0.12,0.12 0.12,0.12 0.12,0 0.12,0.12 0.12,0 0.12,0.12 0.12,0.12 0.12,0 0.12,0.12 0.12,0.12 0.12,0 0.12,0.12 0.12,0.12 0.12,0 0.12,0.12 0.12,0.12 0.12,0 0.12,0.12 0.12,0.12 0.12,0 0.12,0.12 0.12,0.12 0.12,0 0.12,0.12 0.12,0.12 0.12,0 0.12,0.12 0.12,0.12 0.12,0 0.12,0.12 0.12,0.12 0.12,0 0.12,0.12 0.12,0 0.12,0.12 0.12,0.12 0.12,0 0.12,0.12 0.12,0.12 0.12,0 0.12,0.12 0.12,0.12 0.12,0 0.12,0.12 0.12,0.12 0.12,0 0.12,0.12 0.12,0.12 0.12,0 0.12,0.12 0.12,0.12 0.12,0 0.12,0.12 0.12,0.12 0.12,0 0.12,0.12 0.12,0.12 0.12,0 0.12,0.12 0.12,0 0.12,0.12 0.12,0.12 0.12,0 0.12,0.12 0.12,0.12 0.12,0 0.12,0.12 0.12,0.12 0.12,0 0.12,0.12 0.12,0.12 0.12,0 0.12,0.12 0.12,0.12 0.12,0 0.12,0.12 0.12,0.12 0.12,0 0.12,0.12 0.12,0.12 0.12,0 0.12,0.12 0.12,0.12 0.12,0 0.12,0.12 0.12,0.12 0.12,0 0.12,0.12 0.12,0 0.12,0.12 0.12,0.12 0.12,0 0.12,0.12 0.12,0.12 0.12,0 0.12,0.12" /><path
   id="path3809"
   style="fill:none;stroke:#00ff00;stroke-width:1.30000000000000004;stroke-linecap:butt;stroke-linejoin:round;stroke-miterlimit:10;stroke-opacity:1;stroke-dasharray:none;stroke-dashoffset:0"
   d="m 196.08,332.04 0.12,0.12 0.12,0.12 0.12,0 0.12,0.12 0.12,0.12 0.12,0 0.12,0.12 0.12,0.12 0.12,0 0.12,0.12 0.12,0.12 0.12,0 0.12,0.12 0.12,0.12 0.12,0 0.12,0.12 0.12,0.12 0.12,0 0.12,0.12 0.12,0.12 0.12,0 0.12,0.12 0.12,0 0.12,0.12 0.12,0.12 0.12,0 0.12,0.12 0.12,0.12 0.12,0 0.12,0.12 0.12,0.12 0.12,0 0.12,0.12 0.12,0.12 0.12,0 0.12,0.12 0.12,0.12 0.12,0 0.12,0.12 0.12,0.12 0.12,0 0.12,0.12 0.12,0.12 0.12,0 0.12,0.12 0.12,0.12 0.12,0 0.12,0.12 0.12,0.12 0.12,0 0.12,0.12 0.12,0 0.12,0.12 0.12,0.12 0.12,0 0.12,0.12 0.12,0.12 0.12,0 0.12,0.12 0.12,0.12 0.12,0 0.12,0.12 0.12,0.12 0.12,0 0.12,0.12 0.12,0.12 0.12,0 0.12,0.12 0.12,0.12 0.12,0 0.12,0.12 0.12,0.12 0.12,0 0.12,0.12 0.12,0.12 0.12,0 0.12,0.12 0.12,0 0.12,0.12 0.12,0.12 0.12,0 0.12,0.12 0.12,0.12 0.12,0 0.12,0.12 0.12,0.12 0.12,0 0.12,0.12 0.12,0.12 0.12,0 0.12,0.12 0.12,0.12 0.12,0 0.12,0.12 0.12,0.12 0.12,0 0.12,0.12 0.12,0.12 0.12,0" /><path
   id="path3811"
   style="fill:none;stroke:#00ff00;stroke-width:1.30000000000000004;stroke-linecap:butt;stroke-linejoin:round;stroke-miterlimit:10;stroke-opacity:1;stroke-dasharray:none;stroke-dashoffset:0"
   d="m 184.2,324.36 0.12,0 0.12,0.12 0.12,0.12 0.12,0 0.12,0.12 0.12,0.12 0.12,0 0.12,0.12 0.12,0 0.12,0.12 0.12,0.12 0.12,0 0.12,0.12 0.12,0.12 0.12,0 0.12,0.12 0.12,0.12 0.12,0 0.12,0.12 0.12,0.12 0.12,0 0.12,0.12 0.12,0.12 0.12,0 0.12,0.12 0.12,0.12 0.12,0 0.12,0.12 0.12,0.12 0.12,0 0.12,0.12 0.12,0.12 0.12,0 0.12,0.12 0.12,0.12 0.12,0 0.12,0.12 0.12,0 0.12,0.12 0.12,0.12 0.12,0 0.12,0.12 0.12,0.12 0.12,0 0.12,0.12 0.12,0.12 0.12,0 0.12,0.12 0.12,0.12 0.12,0 0.12,0.12 0.12,0.12 0.12,0 0.12,0.12 0.12,0.12 0.12,0 0.12,0.12 0.12,0.12 0.12,0 0.12,0.12 0.12,0.12 0.12,0 0.12,0.12 0.12,0.12 0.12,0 0.12,0.12 0.12,0 0.12,0.12 0.12,0.12 0.12,0 0.12,0.12 0.12,0.12 0.12,0 0.12,0.12 0.12,0.12 0.12,0 0.12,0.12 0.12,0.12 0.12,0 0.12,0.12 0.12,0.12 0.12,0 0.12,0.12 0.12,0.12 0.12,0 0.12,0.12 0.12,0.12 0.12,0 0.12,0.12 0.12,0.12 0.12,0 0.12,0.12 0.12,0 0.12,0.12 0.12,0.12 0.12,0 0.12,0.12 0.12,0.12 0.12,0" /><path
   id="path3813"
   style="fill:none;stroke:#00ff00;stroke-width:1.30000000000000004;stroke-linecap:butt;stroke-linejoin:round;stroke-miterlimit:10;stroke-opacity:1;stroke-dasharray:none;stroke-dashoffset:0"
   d="m 172.32,316.56 0.12,0 0.12,0.12 0.12,0.12 0.12,0 0.12,0.12 0.12,0.12 0.12,0 0.12,0.12 0.12,0.12 0.12,0 0.12,0.12 0.12,0.12 0.12,0 0.12,0.12 0.12,0.12 0.12,0 0.12,0.12 0.12,0.12 0.12,0 0.12,0.12 0.12,0.12 0.12,0 0.12,0.12 0.12,0.12 0.12,0 0.12,0.12 0.12,0 0.12,0.12 0.12,0.12 0.12,0 0.12,0.12 0.12,0.12 0.12,0 0.12,0.12 0.12,0.12 0.12,0 0.12,0.12 0.12,0.12 0.12,0 0.12,0.12 0.12,0.12 0.12,0 0.12,0.12 0.12,0.12 0.12,0 0.12,0.12 0.12,0.12 0.12,0 0.12,0.12 0.12,0.12 0.12,0 0.12,0.12 0.12,0 0.12,0.12 0.12,0.12 0.12,0 0.12,0.12 0.12,0.12 0.12,0 0.12,0.12 0.12,0.12 0.12,0 0.12,0.12 0.12,0.12 0.12,0 0.12,0.12 0.12,0.12 0.12,0 0.12,0.12 0.12,0.12 0.12,0 0.12,0.12 0.12,0.12 0.12,0 0.12,0.12 0.12,0.12 0.12,0 0.12,0.12 0.12,0.12 0.12,0 0.12,0.12 0.12,0 0.12,0.12 0.12,0.12 0.12,0 0.12,0.12 0.12,0.12 0.12,0 0.12,0.12 0.12,0.12 0.12,0 0.12,0.12 0.12,0.12 0.12,0 0.12,0.12 0.12,0.12 0.12,0 0.12,0.12 0.12,0.12" /><path
   id="path3815"
   style="fill:none;stroke:#00ff00;stroke-width:1.30000000000000004;stroke-linecap:butt;stroke-linejoin:round;stroke-miterlimit:10;stroke-opacity:1;stroke-dasharray:none;stroke-dashoffset:0"
   d="m 160.44,308.76 0.12,0.12 0.12,0 0.12,0.12 0.12,0.12 0.12,0 0.12,0.12 0.12,0.12 0.12,0 0.12,0.12 0.12,0.12 0.12,0 0.12,0.12 0.12,0 0.12,0.12 0.12,0.12 0.12,0 0.12,0.12 0.12,0.12 0.12,0 0.12,0.12 0.12,0.12 0.12,0 0.12,0.12 0.12,0.12 0.12,0 0.12,0.12 0.12,0.12 0.12,0 0.12,0.12 0.12,0.12 0.12,0 0.12,0.12 0.12,0.12 0.12,0 0.12,0.12 0.12,0.12 0.12,0 0.12,0.12 0.12,0.12 0.12,0 0.12,0.12 0.12,0 0.12,0.12 0.12,0.12 0.12,0 0.12,0.12 0.12,0.12 0.12,0 0.12,0.12 0.12,0.12 0.12,0 0.12,0.12 0.12,0.12 0.12,0 0.12,0.12 0.12,0.12 0.12,0 0.12,0.12 0.12,0.12 0.12,0 0.12,0.12 0.12,0.12 0.12,0 0.12,0.12 0.12,0.12 0.12,0 0.12,0.12 0.12,0 0.12,0.12 0.12,0.12 0.12,0 0.12,0.12 0.12,0.12 0.12,0 0.12,0.12 0.12,0.12 0.12,0 0.12,0.12 0.12,0.12 0.12,0 0.12,0.12 0.12,0.12 0.12,0 0.12,0.12 0.12,0.12 0.12,0 0.12,0.12 0.12,0.12 0.12,0 0.12,0.12 0.12,0.12 0.12,0 0.12,0.12 0.12,0.12 0.12,0 0.12,0.12 0.12,0 0.12,0.12 0.12,0.12" /><path
   id="path3817"
   style="fill:none;stroke:#00ff00;stroke-width:1.30000000000000004;stroke-linecap:butt;stroke-linejoin:round;stroke-miterlimit:10;stroke-opacity:1;stroke-dasharray:none;stroke-dashoffset:0"
   d="m 148.56,300.96 0.12,0.12 0.12,0 0.12,0.12 0.12,0.12 0.12,0 0.12,0.12 0.12,0.12 0.12,0 0.12,0.12 0.12,0.12 0.12,0 0.12,0.12 0.12,0.12 0.12,0 0.12,0.12 0.12,0.12 0.12,0 0.12,0.12 0.12,0.12 0.12,0 0.12,0.12 0.12,0.12 0.12,0 0.12,0.12 0.12,0.12 0.12,0 0.12,0.12 0.12,0 0.12,0.12 0.12,0.12 0.12,0 0.12,0.12 0.12,0.12 0.12,0 0.12,0.12 0.12,0.12 0.12,0 0.12,0.12 0.12,0.12 0.12,0 0.12,0.12 0.12,0.12 0.12,0 0.12,0.12 0.12,0.12 0.12,0 0.12,0.12 0.12,0.12 0.12,0 0.12,0.12 0.12,0.12 0.12,0 0.12,0.12 0.12,0.12 0.12,0 0.12,0.12 0.12,0 0.12,0.12 0.12,0.12 0.12,0 0.12,0.12 0.12,0.12 0.12,0 0.12,0.12 0.12,0.12 0.12,0 0.12,0.12 0.12,0.12 0.12,0 0.12,0.12 0.12,0.12 0.12,0 0.12,0.12 0.12,0.12 0.12,0 0.12,0.12 0.12,0.12 0.12,0 0.12,0.12 0.12,0.12 0.12,0 0.12,0.12 0.12,0 0.12,0.12 0.12,0.12 0.12,0 0.12,0.12 0.12,0.12 0.12,0 0.12,0.12 0.12,0.12 0.12,0 0.12,0.12 0.12,0.12 0.12,0 0.12,0.12 0.12,0.12 0.12,0 0.12,0.12" /><path
   id="path3819"
   style="fill:none;stroke:#00ff00;stroke-width:1.30000000000000004;stroke-linecap:butt;stroke-linejoin:round;stroke-miterlimit:10;stroke-opacity:1;stroke-dasharray:none;stroke-dashoffset:0"
   d="m 139.44,294.96 -0.12,0 0.12,0 0.12,0.12 0.12,0.12 0.12,0 0.12,0.12 0.12,0.12 0.12,0 0.12,0.12 0.12,0.12 0.12,0 0.12,0.12 0.12,0.12 0.12,0 0.12,0.12 0.12,0.12 0.12,0 0.12,0.12 0.12,0.12 0.12,0 0.12,0.12 0.12,0 0.12,0.12 0.12,0.12 0.12,0 0.12,0.12 0.12,0.12 0.12,0 0.12,0.12 0.12,0.12 0.12,0 0.12,0.12 0.12,0.12 0.12,0 0.12,0.12 0.12,0.12 0.12,0 0.12,0.12 0.12,0.12 0.12,0 0.12,0.12 0.12,0.12 0.12,0 0.12,0.12 0.12,0.12 0.12,0 0.12,0.12 0.12,0.12 0.12,0 0.12,0.12 0.12,0 0.12,0.12 0.12,0.12 0.12,0 0.12,0.12 0.12,0.12 0.12,0 0.12,0.12 0.12,0.12 0.12,0 0.12,0.12 0.12,0.12 0.12,0 0.12,0.12 0.12,0.12 0.12,0 0.12,0.12 0.12,0.12 0.12,0 0.12,0.12 0.12,0.12 0.12,0 0.12,0.12 0.12,0.12 0.12,0 0.12,0.12 0.12,0 0.12,0.12" /><path
   id="path3821"
   style="fill:none;stroke:#0000ff;stroke-width:1.30000000000000004;stroke-linecap:butt;stroke-linejoin:round;stroke-miterlimit:10;stroke-opacity:1;stroke-dasharray:none;stroke-dashoffset:0"
   d="m 445.56,302.28 0.12,0 0.12,-0.12 0.12,0 0.12,-0.12 0.12,-0.12 0.12,0 0.12,-0.12 0.12,0 0.12,-0.12 0.12,-0.12 0.12,0 0.12,-0.12 0.12,0 0.12,-0.12 0.12,-0.12 0.12,0 0.12,-0.12 0.12,0 0.12,-0.12 0.12,-0.12 0.12,0 0.12,-0.12 0.12,0 0.12,-0.12 0.12,-0.12 0.12,0 0.12,-0.12 0.12,-0.12 0.12,0 0.12,-0.12 0.12,0 0.12,-0.12 0.12,-0.12 0.12,0 0.12,-0.12 0.12,-0.12 0.12,0 0.12,-0.12 0.12,0 0.12,-0.12 0.12,-0.12 0.12,0 0.12,-0.12 0.12,-0.12 0.12,0 0.12,-0.12 0.12,0 0.12,-0.12 0.12,-0.12 0.12,0 0.12,-0.12 0.12,-0.12 0.12,0 0.12,-0.12 0.12,-0.12 0.12,0 0.12,-0.12 0.12,0 0.12,-0.12 0.12,-0.12 0.12,0 0.12,-0.12 0.12,-0.12 0.12,0 0.12,-0.12 0.12,-0.12 0.12,0 0.12,-0.12 0.12,-0.12 0.12,0 0.12,-0.12 0.12,-0.12 0.12,0 0.12,-0.12 0.12,0 0.12,-0.12 0.12,-0.12 0.12,0 0.12,-0.12 0.12,-0.12 0.12,0 0.12,-0.12 0.12,-0.12 0.12,0 0.12,-0.12 0.12,-0.12 0.12,0 0.12,-0.12 0.12,-0.12 0.12,0 0.12,-0.12 0.12,-0.12 0.12,0 0.12,-0.12 0.12,-0.12 0.12,0 0.12,-0.12 0.12,-0.12 0.12,0" /><path
   id="path3823"
   style="fill:none;stroke:#0000ff;stroke-width:1.30000000000000004;stroke-linecap:butt;stroke-linejoin:round;stroke-miterlimit:10;stroke-opacity:1;stroke-dasharray:none;stroke-dashoffset:0"
   d="m 433.68,308.16 0.24,0 0.12,-0.12 0.12,0 0.12,-0.12 0.24,0 0.12,-0.12 0.12,0 0.12,-0.12 0.24,0 0.12,-0.12 0.12,0 0.12,-0.12 0.12,0 0.12,-0.12 0.24,0 0.12,-0.12 0.12,0 0.12,-0.12 0.12,0 0.12,-0.12 0.12,0 0.12,-0.12 0.24,0 0.12,-0.12 0.12,0 0.12,-0.12 0.12,0 0.12,-0.12 0.12,0 0.12,-0.12 0.12,0 0.12,-0.12 0.12,0 0.12,-0.12 0.12,0 0.12,-0.12 0.12,0 0.12,-0.12 0.24,0 0.12,-0.12 0.12,0 0.12,-0.12 0.12,0 0.12,-0.12 0.12,0 0.12,-0.12 0.12,0 0.12,-0.12 0.12,0 0.12,-0.12 0.12,-0.12 0.12,0 0.12,-0.12 0.12,0 0.12,-0.12 0.12,0 0.12,-0.12 0.12,0 0.12,-0.12 0.12,0 0.12,-0.12 0.12,0 0.12,-0.12 0.12,0 0.12,-0.12 0.12,0 0.12,-0.12 0.12,-0.12 0.12,0 0.12,-0.12 0.12,0 0.12,-0.12 0.12,0 0.12,-0.12 0.12,0 0.12,-0.12 0.12,-0.12 0.12,0 0.12,-0.12 0.12,0 0.12,-0.12 0.12,0 0.12,-0.12 0.12,0 0.12,-0.12 0.12,-0.12 0.12,0 0.12,-0.12 0.12,0 0.12,-0.12 0.12,-0.12 0.12,0 0.12,-0.12" /><path
   id="path3825"
   style="fill:none;stroke:#0000ff;stroke-width:1.30000000000000004;stroke-linecap:butt;stroke-linejoin:round;stroke-miterlimit:10;stroke-opacity:1;stroke-dasharray:none;stroke-dashoffset:0"
   d="m 421.8,311.16 0.84,0 0.12,-0.12 0.72,0 0.12,-0.12 0.6,0 0.12,-0.12 0.6,0 0.12,-0.12 0.48,0 0.12,-0.12 0.48,0 0.12,-0.12 0.36,0 0.12,-0.12 0.36,0 0.12,-0.12 0.36,0 0.12,-0.12 0.36,0 0.12,-0.12 0.36,0 0.12,-0.12 0.36,0 0.12,-0.12 0.24,0 0.12,-0.12 0.24,0 0.12,-0.12 0.36,0 0.12,-0.12 0.24,0 0.12,-0.12 0.24,0 0.12,-0.12 0.24,0 0.12,-0.12 0.24,0 0.12,-0.12 0.24,0 0.12,-0.12 0.12,0 0.12,-0.12 0.24,0 0.12,-0.12 0.24,0 0.12,-0.12 0.24,0 0.12,-0.12 0.12,0 0.12,-0.12" /><path
   id="path3827"
   style="fill:none;stroke:#0000ff;stroke-width:1.30000000000000004;stroke-linecap:butt;stroke-linejoin:round;stroke-miterlimit:10;stroke-opacity:1;stroke-dasharray:none;stroke-dashoffset:0"
   d="m 409.92,310.68 0.36,0 0.12,0.12 0.48,0 0.12,0.12 0.6,0 0.12,0.12 0.72,0 0.12,0.12 0.96,0 0.12,0.12 1.32,0 0.12,0.12 5.16,0 0.12,-0.12 1.2,0 0.12,-0.12 0.12,0" /><path
   id="path3829"
   style="fill:none;stroke:#0000ff;stroke-width:1.30000000000000004;stroke-linecap:butt;stroke-linejoin:round;stroke-miterlimit:10;stroke-opacity:1;stroke-dasharray:none;stroke-dashoffset:0"
   d="m 398.04,306.72 0.12,0 0.12,0.12 0.12,0 0.12,0.12 0.12,0 0.12,0.12 0.12,0 0.12,0.12 0.24,0 0.12,0.12 0.12,0 0.12,0.12 0.12,0 0.12,0.12 0.24,0 0.12,0.12 0.12,0 0.12,0.12 0.24,0 0.12,0.12 0.12,0 0.12,0.12 0.24,0 0.12,0.12 0.12,0 0.12,0.12 0.24,0 0.12,0.12 0.12,0 0.12,0.12 0.24,0 0.12,0.12 0.24,0 0.12,0.12 0.24,0 0.12,0.12 0.12,0 0.12,0.12 0.24,0 0.12,0.12 0.24,0 0.12,0.12 0.24,0 0.12,0.12 0.36,0 0.12,0.12 0.24,0 0.12,0.12 0.24,0 0.12,0.12 0.36,0 0.12,0.12 0.24,0 0.12,0.12 0.36,0 0.12,0.12 0.36,0 0.12,0.12 0.36,0 0.12,0.12 0.36,0 0.12,0.12 0.48,0 0.12,0.12 0.36,0 0.12,0.12 0.24,0" /><path
   id="path3831"
   style="fill:none;stroke:#0000ff;stroke-width:1.30000000000000004;stroke-linecap:butt;stroke-linejoin:round;stroke-miterlimit:10;stroke-opacity:1;stroke-dasharray:none;stroke-dashoffset:0"
   d="m 386.16,300.24 0.12,0 0.12,0.12 0.12,0.12 0.12,0 0.12,0.12 0.12,0 0.12,0.12 0.12,0.12 0.12,0 0.12,0.12 0.12,0 0.12,0.12 0.12,0.12 0.12,0 0.12,0.12 0.12,0 0.12,0.12 0.12,0.12 0.12,0 0.12,0.12 0.12,0 0.12,0.12 0.12,0.12 0.12,0 0.12,0.12 0.12,0 0.12,0.12 0.12,0.12 0.12,0 0.12,0.12 0.12,0 0.12,0.12 0.12,0 0.12,0.12 0.12,0.12 0.12,0 0.12,0.12 0.12,0 0.12,0.12 0.12,0.12 0.12,0 0.12,0.12 0.12,0 0.12,0.12 0.12,0 0.12,0.12 0.12,0 0.12,0.12 0.12,0.12 0.12,0 0.12,0.12 0.12,0 0.12,0.12 0.12,0 0.12,0.12 0.12,0 0.12,0.12 0.12,0 0.12,0.12 0.12,0.12 0.12,0 0.12,0.12 0.12,0 0.12,0.12 0.12,0 0.12,0.12 0.12,0 0.12,0.12 0.12,0 0.12,0.12 0.12,0 0.12,0.12 0.12,0 0.12,0.12 0.12,0 0.12,0.12 0.12,0 0.12,0.12 0.12,0 0.12,0.12 0.12,0 0.12,0.12 0.12,0 0.12,0.12 0.12,0 0.12,0.12 0.12,0 0.12,0.12 0.12,0 0.12,0.12 0.12,0 0.12,0.12 0.12,0 0.12,0.12 0.12,0 0.12,0.12 0.12,0 0.12,0.12 0.12,0" /><path
   id="path3833"
   style="fill:none;stroke:#0000ff;stroke-width:1.30000000000000004;stroke-linecap:butt;stroke-linejoin:round;stroke-miterlimit:10;stroke-opacity:1;stroke-dasharray:none;stroke-dashoffset:0"
   d="m 374.28,292.56 0.12,0 0.12,0.12 0.12,0.12 0.12,0 0.12,0.12 0.12,0.12 0.12,0 0.12,0.12 0.12,0.12 0.12,0 0.12,0.12 0.12,0.12 0.12,0 0.12,0.12 0.12,0.12 0.12,0 0.12,0.12 0.12,0 0.12,0.12 0.12,0.12 0.12,0 0.12,0.12 0.12,0.12 0.12,0 0.12,0.12 0.12,0.12 0.12,0 0.12,0.12 0.12,0.12 0.12,0 0.12,0.12 0.12,0.12 0.12,0 0.12,0.12 0.12,0.12 0.12,0 0.12,0.12 0.12,0.12 0.12,0 0.12,0.12 0.12,0.12 0.12,0 0.12,0.12 0.12,0 0.12,0.12 0.12,0.12 0.12,0 0.12,0.12 0.12,0.12 0.12,0 0.12,0.12 0.12,0.12 0.12,0 0.12,0.12 0.12,0.12 0.12,0 0.12,0.12 0.12,0.12 0.12,0 0.12,0.12 0.12,0.12 0.12,0 0.12,0.12 0.12,0 0.12,0.12 0.12,0.12 0.12,0 0.12,0.12 0.12,0.12 0.12,0 0.12,0.12 0.12,0.12 0.12,0 0.12,0.12 0.12,0.12 0.12,0 0.12,0.12 0.12,0 0.12,0.12 0.12,0.12 0.12,0 0.12,0.12 0.12,0.12 0.12,0 0.12,0.12 0.12,0.12 0.12,0 0.12,0.12 0.12,0 0.12,0.12 0.12,0.12 0.12,0 0.12,0.12 0.12,0.12 0.12,0 0.12,0.12 0.12,0 0.12,0.12 0.12,0.12" /><path
   id="path3835"
   style="fill:none;stroke:#0000ff;stroke-width:1.30000000000000004;stroke-linecap:butt;stroke-linejoin:round;stroke-miterlimit:10;stroke-opacity:1;stroke-dasharray:none;stroke-dashoffset:0"
   d="m 362.4,285.36 0.12,0.12 0.12,0 0.12,0.12 0.12,0 0.12,0.12 0.12,0 0.12,0.12 0.12,0 0.12,0.12 0.12,0 0.12,0.12 0.12,0.12 0.12,0 0.12,0.12 0.12,0 0.12,0.12 0.12,0 0.12,0.12 0.12,0 0.12,0.12 0.12,0.12 0.12,0 0.12,0.12 0.12,0 0.12,0.12 0.12,0 0.12,0.12 0.12,0.12 0.12,0 0.12,0.12 0.12,0 0.12,0.12 0.12,0.12 0.12,0 0.12,0.12 0.12,0 0.12,0.12 0.12,0.12 0.12,0 0.12,0.12 0.12,0 0.12,0.12 0.12,0.12 0.12,0 0.12,0.12 0.12,0 0.12,0.12 0.12,0.12 0.12,0 0.12,0.12 0.12,0 0.12,0.12 0.12,0.12 0.12,0 0.12,0.12 0.12,0 0.12,0.12 0.12,0.12 0.12,0 0.12,0.12 0.12,0.12 0.12,0 0.12,0.12 0.12,0 0.12,0.12 0.12,0.12 0.12,0 0.12,0.12 0.12,0.12 0.12,0 0.12,0.12 0.12,0 0.12,0.12 0.12,0.12 0.12,0 0.12,0.12 0.12,0.12 0.12,0 0.12,0.12 0.12,0.12 0.12,0 0.12,0.12 0.12,0 0.12,0.12 0.12,0.12 0.12,0 0.12,0.12 0.12,0.12 0.12,0 0.12,0.12 0.12,0.12 0.12,0 0.12,0.12 0.12,0 0.12,0.12 0.12,0.12 0.12,0 0.12,0.12 0.12,0.12" /><path
   id="path3837"
   style="fill:none;stroke:#0000ff;stroke-width:1.30000000000000004;stroke-linecap:butt;stroke-linejoin:round;stroke-miterlimit:10;stroke-opacity:1;stroke-dasharray:none;stroke-dashoffset:0"
   d="m 350.52,280.2 0.12,0.12 0.24,0 0.12,0.12 0.24,0 0.12,0.12 0.24,0 0.12,0.12 0.24,0 0.12,0.12 0.24,0 0.12,0.12 0.24,0 0.12,0.12 0.24,0 0.12,0.12 0.12,0 0.12,0.12 0.24,0 0.12,0.12 0.24,0 0.12,0.12 0.12,0 0.12,0.12 0.24,0 0.12,0.12 0.12,0 0.12,0.12 0.24,0 0.12,0.12 0.12,0 0.12,0.12 0.24,0 0.12,0.12 0.12,0 0.12,0.12 0.12,0 0.12,0.12 0.24,0 0.12,0.12 0.12,0 0.12,0.12 0.12,0 0.12,0.12 0.12,0 0.12,0.12 0.12,0 0.12,0.12 0.24,0 0.12,0.12 0.12,0 0.12,0.12 0.12,0 0.12,0.12 0.12,0 0.12,0.12 0.12,0 0.12,0.12 0.12,0 0.12,0.12 0.12,0 0.12,0.12 0.12,0 0.12,0.12 0.12,0 0.12,0.12 0.12,0 0.12,0.12 0.12,0 0.12,0.12 0.12,0 0.12,0.12 0.12,0 0.12,0.12 0.12,0 0.12,0.12 0.12,0 0.12,0.12 0.12,0 0.12,0.12 0.12,0 0.12,0.12 0.12,0 0.12,0.12 0.12,0 0.12,0.12" /><path
   id="path3839"
   style="fill:none;stroke:#0000ff;stroke-width:1.30000000000000004;stroke-linecap:butt;stroke-linejoin:round;stroke-miterlimit:10;stroke-opacity:1;stroke-dasharray:none;stroke-dashoffset:0"
   d="m 338.64,278.28 1.56,0 0.12,0.12 1.44,0 0.12,0.12 0.96,0 0.12,0.12 0.84,0 0.12,0.12 0.6,0 0.12,0.12 0.6,0 0.12,0.12 0.48,0 0.12,0.12 0.48,0 0.12,0.12 0.36,0 0.12,0.12 0.48,0 0.12,0.12 0.36,0 0.12,0.12 0.36,0 0.12,0.12 0.24,0 0.12,0.12 0.36,0 0.12,0.12 0.24,0 0.12,0.12 0.36,0 0.12,0.12 0.24,0" /><path
   id="path3841"
   style="fill:none;stroke:#0000ff;stroke-width:1.30000000000000004;stroke-linecap:butt;stroke-linejoin:round;stroke-miterlimit:10;stroke-opacity:1;stroke-dasharray:none;stroke-dashoffset:0"
   d="m 326.76,279.96 0.12,-0.12 0.24,0 0.12,-0.12 0.36,0 0.12,-0.12 0.36,0 0.12,-0.12 0.36,0 0.12,-0.12 0.36,0 0.12,-0.12 0.48,0 0.12,-0.12 0.48,0 0.12,-0.12 0.48,0 0.12,-0.12 0.6,0 0.12,-0.12 0.6,0 0.12,-0.12 0.72,0 0.12,-0.12 0.96,0 0.12,-0.12 1.44,0 0.12,-0.12 2.76,0" /><path
   id="path3843"
   style="fill:none;stroke:#0000ff;stroke-width:1.30000000000000004;stroke-linecap:butt;stroke-linejoin:round;stroke-miterlimit:10;stroke-opacity:1;stroke-dasharray:none;stroke-dashoffset:0"
   d="m 314.88,284.76 0.12,-0.12 0.12,0 0.12,-0.12 0.12,0 0.12,-0.12 0.12,0 0.12,-0.12 0.12,0 0.12,-0.12 0.12,0 0.12,-0.12 0.12,0 0.12,-0.12 0.12,0 0.12,-0.12 0.12,0 0.12,-0.12 0.12,0 0.12,-0.12 0.12,0 0.12,-0.12 0.24,0 0.12,-0.12 0.12,0 0.12,-0.12 0.12,0 0.12,-0.12 0.12,0 0.12,-0.12 0.12,0 0.12,-0.12 0.12,0 0.12,-0.12 0.24,0 0.12,-0.12 0.12,0 0.12,-0.12 0.12,0 0.12,-0.12 0.24,0 0.12,-0.12 0.12,0 0.12,-0.12 0.12,0 0.12,-0.12 0.24,0 0.12,-0.12 0.12,0 0.12,-0.12 0.24,0 0.12,-0.12 0.12,0 0.12,-0.12 0.24,0 0.12,-0.12 0.12,0 0.12,-0.12 0.24,0 0.12,-0.12 0.24,0 0.12,-0.12 0.12,0 0.12,-0.12 0.24,0 0.12,-0.12 0.24,0 0.12,-0.12 0.24,0 0.12,-0.12 0.24,0 0.12,-0.12 0.24,0 0.12,-0.12 0.24,0 0.12,-0.12 0.36,0 0.12,-0.12 0.24,0 0.12,-0.12 0.36,0" /><path
   id="path3845"
   style="fill:none;stroke:#0000ff;stroke-width:1.30000000000000004;stroke-linecap:butt;stroke-linejoin:round;stroke-miterlimit:10;stroke-opacity:1;stroke-dasharray:none;stroke-dashoffset:0"
   d="m 303,291.84 0.12,-0.12 0.12,-0.12 0.12,0 0.12,-0.12 0.12,-0.12 0.12,0 0.12,-0.12 0.12,-0.12 0.12,0 0.12,-0.12 0.12,0 0.12,-0.12 0.12,-0.12 0.12,0 0.12,-0.12 0.12,-0.12 0.12,0 0.12,-0.12 0.12,-0.12 0.12,0 0.12,-0.12 0.12,0 0.12,-0.12 0.12,-0.12 0.12,0 0.12,-0.12 0.12,-0.12 0.12,0 0.12,-0.12 0.12,0 0.12,-0.12 0.12,-0.12 0.12,0 0.12,-0.12 0.12,0 0.12,-0.12 0.12,-0.12 0.12,0 0.12,-0.12 0.12,-0.12 0.12,0 0.12,-0.12 0.12,0 0.12,-0.12 0.12,-0.12 0.12,0 0.12,-0.12 0.12,0 0.12,-0.12 0.12,-0.12 0.12,0 0.12,-0.12 0.12,0 0.12,-0.12 0.12,-0.12 0.12,0 0.12,-0.12 0.12,0 0.12,-0.12 0.12,0 0.12,-0.12 0.12,-0.12 0.12,0 0.12,-0.12 0.12,0 0.12,-0.12 0.12,-0.12 0.12,0 0.12,-0.12 0.12,0 0.12,-0.12 0.12,0 0.12,-0.12 0.12,-0.12 0.12,0 0.12,-0.12 0.12,0 0.12,-0.12 0.12,0 0.12,-0.12 0.12,0 0.12,-0.12 0.12,0 0.12,-0.12 0.12,-0.12 0.12,0 0.12,-0.12 0.12,0 0.12,-0.12 0.12,0 0.12,-0.12 0.12,0 0.12,-0.12 0.12,0 0.12,-0.12 0.12,0 0.12,-0.12 0.12,-0.12 0.12,0" /><path
   id="path3847"
   style="fill:none;stroke:#0000ff;stroke-width:1.30000000000000004;stroke-linecap:butt;stroke-linejoin:round;stroke-miterlimit:10;stroke-opacity:1;stroke-dasharray:none;stroke-dashoffset:0"
   d="m 291.12,299.52 0.12,-0.12 0.12,-0.12 0.12,0 0.12,-0.12 0.12,0 0.12,-0.12 0.12,-0.12 0.12,0 0.12,-0.12 0.12,-0.12 0.12,0 0.12,-0.12 0.12,-0.12 0.12,0 0.12,-0.12 0.12,0 0.12,-0.12 0.12,-0.12 0.12,0 0.12,-0.12 0.12,-0.12 0.12,0 0.12,-0.12 0.12,-0.12 0.12,0 0.12,-0.12 0.12,-0.12 0.12,0 0.12,-0.12 0.12,0 0.12,-0.12 0.12,-0.12 0.12,0 0.12,-0.12 0.12,-0.12 0.12,0 0.12,-0.12 0.12,-0.12 0.12,0 0.12,-0.12 0.12,-0.12 0.12,0 0.12,-0.12 0.12,-0.12 0.12,0 0.12,-0.12 0.12,-0.12 0.12,0 0.12,-0.12 0.12,0 0.12,-0.12 0.12,-0.12 0.12,0 0.12,-0.12 0.12,-0.12 0.12,0 0.12,-0.12 0.12,-0.12 0.12,0 0.12,-0.12 0.12,-0.12 0.12,0 0.12,-0.12 0.12,-0.12 0.12,0 0.12,-0.12 0.12,-0.12 0.12,0 0.12,-0.12 0.12,-0.12 0.12,0 0.12,-0.12 0.12,-0.12 0.12,0 0.12,-0.12 0.12,0 0.12,-0.12 0.12,-0.12 0.12,0 0.12,-0.12 0.12,-0.12 0.12,0 0.12,-0.12 0.12,-0.12 0.12,0 0.12,-0.12 0.12,-0.12 0.12,0 0.12,-0.12 0.12,-0.12 0.12,0 0.12,-0.12 0.12,-0.12 0.12,0 0.12,-0.12 0.12,0 0.12,-0.12 0.12,-0.12 0.12,0" /><path
   id="path3849"
   style="fill:none;stroke:#0000ff;stroke-width:1.30000000000000004;stroke-linecap:butt;stroke-linejoin:round;stroke-miterlimit:10;stroke-opacity:1;stroke-dasharray:none;stroke-dashoffset:0"
   d="m 279.24,306.24 0.12,-0.12 0.12,0 0.12,-0.12 0.12,0 0.12,-0.12 0.12,0 0.12,-0.12 0.12,0 0.12,-0.12 0.12,0 0.12,-0.12 0.12,0 0.12,-0.12 0.12,0 0.12,-0.12 0.12,0 0.12,-0.12 0.12,0 0.12,-0.12 0.12,0 0.12,-0.12 0.12,0 0.12,-0.12 0.12,-0.12 0.12,0 0.12,-0.12 0.12,0 0.12,-0.12 0.12,0 0.12,-0.12 0.12,0 0.12,-0.12 0.12,0 0.12,-0.12 0.12,0 0.12,-0.12 0.12,-0.12 0.12,0 0.12,-0.12 0.12,0 0.12,-0.12 0.12,0 0.12,-0.12 0.12,0 0.12,-0.12 0.12,-0.12 0.12,0 0.12,-0.12 0.12,0 0.12,-0.12 0.12,0 0.12,-0.12 0.12,0 0.12,-0.12 0.12,-0.12 0.12,0 0.12,-0.12 0.12,0 0.12,-0.12 0.12,-0.12 0.12,0 0.12,-0.12 0.12,0 0.12,-0.12 0.12,0 0.12,-0.12 0.12,-0.12 0.12,0 0.12,-0.12 0.12,0 0.12,-0.12 0.12,-0.12 0.12,0 0.12,-0.12 0.12,0 0.12,-0.12 0.12,-0.12 0.12,0 0.12,-0.12 0.12,0 0.12,-0.12 0.12,-0.12 0.12,0 0.12,-0.12 0.12,-0.12 0.12,0 0.12,-0.12 0.12,0 0.12,-0.12 0.12,-0.12 0.12,0 0.12,-0.12 0.12,-0.12 0.12,0 0.12,-0.12 0.12,0 0.12,-0.12 0.12,-0.12 0.12,0" /><path
   id="path3851"
   style="fill:none;stroke:#0000ff;stroke-width:1.30000000000000004;stroke-linecap:butt;stroke-linejoin:round;stroke-miterlimit:10;stroke-opacity:1;stroke-dasharray:none;stroke-dashoffset:0"
   d="m 267.36,310.44 0.12,0 0.12,-0.12 0.48,0 0.12,-0.12 0.36,0 0.12,-0.12 0.36,0 0.12,-0.12 0.24,0 0.12,-0.12 0.36,0 0.12,-0.12 0.24,0 0.12,-0.12 0.36,0 0.12,-0.12 0.24,0 0.12,-0.12 0.24,0 0.12,-0.12 0.24,0 0.12,-0.12 0.24,0 0.12,-0.12 0.24,0 0.12,-0.12 0.24,0 0.12,-0.12 0.24,0 0.12,-0.12 0.12,0 0.12,-0.12 0.24,0 0.12,-0.12 0.24,0 0.12,-0.12 0.12,0 0.12,-0.12 0.24,0 0.12,-0.12 0.12,0 0.12,-0.12 0.24,0 0.12,-0.12 0.12,0 0.12,-0.12 0.24,0 0.12,-0.12 0.12,0 0.12,-0.12 0.24,0 0.12,-0.12 0.12,0 0.12,-0.12 0.12,0 0.12,-0.12 0.12,0 0.12,-0.12 0.24,0 0.12,-0.12 0.12,0 0.12,-0.12 0.12,0 0.12,-0.12 0.12,0 0.12,-0.12 0.12,0 0.12,-0.12 0.12,0 0.12,-0.12 0.24,0" /><path
   id="path3853"
   style="fill:none;stroke:#0000ff;stroke-width:1.30000000000000004;stroke-linecap:butt;stroke-linejoin:round;stroke-miterlimit:10;stroke-opacity:1;stroke-dasharray:none;stroke-dashoffset:0"
   d="m 255.48,311.28 0.36,0 0.12,0.12 5.16,0 0.12,-0.12 1.2,0 0.12,-0.12 0.96,0 0.12,-0.12 0.72,0 0.12,-0.12 0.6,0 0.12,-0.12 0.6,0 0.12,-0.12 0.48,0 0.12,-0.12 0.48,0 0.12,-0.12 0.24,0" /><path
   id="path3855"
   style="fill:none;stroke:#0000ff;stroke-width:1.30000000000000004;stroke-linecap:butt;stroke-linejoin:round;stroke-miterlimit:10;stroke-opacity:1;stroke-dasharray:none;stroke-dashoffset:0"
   d="m 243.6,308.64 0.12,0 0.12,0.12 0.24,0 0.12,0.12 0.24,0 0.12,0.12 0.24,0 0.12,0.12 0.24,0 0.12,0.12 0.24,0 0.12,0.12 0.24,0 0.12,0.12 0.24,0 0.12,0.12 0.24,0 0.12,0.12 0.36,0 0.12,0.12 0.24,0 0.12,0.12 0.36,0 0.12,0.12 0.36,0 0.12,0.12 0.36,0 0.12,0.12 0.36,0 0.12,0.12 0.48,0 0.12,0.12 0.48,0 0.12,0.12 0.48,0 0.12,0.12 0.48,0 0.12,0.12 0.72,0 0.12,0.12 0.72,0 0.12,0.12 0.84,0 0.12,0.12 0.96,0" /><path
   id="path3857"
   style="fill:none;stroke:#0000ff;stroke-width:1.30000000000000004;stroke-linecap:butt;stroke-linejoin:round;stroke-miterlimit:10;stroke-opacity:1;stroke-dasharray:none;stroke-dashoffset:0"
   d="m 231.72,303 0.12,0 0.12,0.12 0.12,0.12 0.12,0 0.12,0.12 0.12,0 0.12,0.12 0.12,0 0.12,0.12 0.12,0 0.12,0.12 0.12,0.12 0.12,0 0.12,0.12 0.12,0 0.12,0.12 0.12,0 0.12,0.12 0.12,0 0.12,0.12 0.12,0 0.12,0.12 0.12,0.12 0.12,0 0.12,0.12 0.12,0 0.12,0.12 0.12,0 0.12,0.12 0.12,0 0.12,0.12 0.12,0 0.12,0.12 0.12,0 0.12,0.12 0.12,0 0.12,0.12 0.12,0 0.12,0.12 0.12,0 0.12,0.12 0.12,0 0.12,0.12 0.12,0 0.12,0.12 0.12,0 0.12,0.12 0.12,0 0.12,0.12 0.12,0 0.12,0.12 0.12,0 0.12,0.12 0.12,0 0.12,0.12 0.24,0 0.12,0.12 0.12,0 0.12,0.12 0.12,0 0.12,0.12 0.12,0 0.12,0.12 0.12,0 0.12,0.12 0.24,0 0.12,0.12 0.12,0 0.12,0.12 0.12,0 0.12,0.12 0.24,0 0.12,0.12 0.12,0 0.12,0.12 0.12,0 0.12,0.12 0.24,0 0.12,0.12 0.12,0 0.12,0.12 0.24,0 0.12,0.12 0.12,0 0.12,0.12 0.24,0 0.12,0.12 0.24,0 0.12,0.12 0.12,0 0.12,0.12 0.12,0" /><path
   id="path3859"
   style="fill:none;stroke:#0000ff;stroke-width:1.30000000000000004;stroke-linecap:butt;stroke-linejoin:round;stroke-miterlimit:10;stroke-opacity:1;stroke-dasharray:none;stroke-dashoffset:0"
   d="m 219.84,295.56 0.12,0.12 0.12,0 0.12,0.12 0.12,0.12 0.12,0 0.12,0.12 0.12,0.12 0.12,0 0.12,0.12 0.12,0.12 0.12,0 0.12,0.12 0.12,0.12 0.12,0 0.12,0.12 0.12,0 0.12,0.12 0.12,0.12 0.12,0 0.12,0.12 0.12,0.12 0.12,0 0.12,0.12 0.12,0.12 0.12,0 0.12,0.12 0.12,0.12 0.12,0 0.12,0.12 0.12,0.12 0.12,0 0.12,0.12 0.12,0 0.12,0.12 0.12,0.12 0.12,0 0.12,0.12 0.12,0.12 0.12,0 0.12,0.12 0.12,0.12 0.12,0 0.12,0.12 0.12,0.12 0.12,0 0.12,0.12 0.12,0 0.12,0.12 0.12,0.12 0.12,0 0.12,0.12 0.12,0.12 0.12,0 0.12,0.12 0.12,0 0.12,0.12 0.12,0.12 0.12,0 0.12,0.12 0.12,0.12 0.12,0 0.12,0.12 0.12,0 0.12,0.12 0.12,0.12 0.12,0 0.12,0.12 0.12,0 0.12,0.12 0.12,0.12 0.12,0 0.12,0.12 0.12,0.12 0.12,0 0.12,0.12 0.12,0 0.12,0.12 0.12,0.12 0.12,0 0.12,0.12 0.12,0 0.12,0.12 0.12,0.12 0.12,0 0.12,0.12 0.12,0 0.12,0.12 0.12,0 0.12,0.12 0.12,0.12 0.12,0 0.12,0.12 0.12,0 0.12,0.12 0.12,0.12 0.12,0 0.12,0.12 0.12,0 0.12,0.12" /><path
   id="path3861"
   style="fill:none;stroke:#0000ff;stroke-width:1.30000000000000004;stroke-linecap:butt;stroke-linejoin:round;stroke-miterlimit:10;stroke-opacity:1;stroke-dasharray:none;stroke-dashoffset:0"
   d="m 207.96,288 0.12,0.12 0.12,0 0.12,0.12 0.12,0 0.12,0.12 0.12,0.12 0.12,0 0.12,0.12 0.12,0 0.12,0.12 0.12,0.12 0.12,0 0.12,0.12 0.12,0 0.12,0.12 0.12,0.12 0.12,0 0.12,0.12 0.12,0.12 0.12,0 0.12,0.12 0.12,0 0.12,0.12 0.12,0.12 0.12,0 0.12,0.12 0.12,0.12 0.12,0 0.12,0.12 0.12,0 0.12,0.12 0.12,0.12 0.12,0 0.12,0.12 0.12,0.12 0.12,0 0.12,0.12 0.12,0 0.12,0.12 0.12,0.12 0.12,0 0.12,0.12 0.12,0.12 0.12,0 0.12,0.12 0.12,0.12 0.12,0 0.12,0.12 0.12,0 0.12,0.12 0.12,0.12 0.12,0 0.12,0.12 0.12,0.12 0.12,0 0.12,0.12 0.12,0.12 0.12,0 0.12,0.12 0.12,0.12 0.12,0 0.12,0.12 0.12,0.12 0.12,0 0.12,0.12 0.12,0 0.12,0.12 0.12,0.12 0.12,0 0.12,0.12 0.12,0.12 0.12,0 0.12,0.12 0.12,0.12 0.12,0 0.12,0.12 0.12,0.12 0.12,0 0.12,0.12 0.12,0.12 0.12,0 0.12,0.12 0.12,0.12 0.12,0 0.12,0.12 0.12,0.12 0.12,0 0.12,0.12 0.12,0.12 0.12,0 0.12,0.12 0.12,0 0.12,0.12 0.12,0.12 0.12,0 0.12,0.12 0.12,0.12 0.12,0 0.12,0.12" /><path
   id="path3863"
   style="fill:none;stroke:#0000ff;stroke-width:1.30000000000000004;stroke-linecap:butt;stroke-linejoin:round;stroke-miterlimit:10;stroke-opacity:1;stroke-dasharray:none;stroke-dashoffset:0"
   d="m 196.08,281.88 0.12,0.12 0.12,0 0.12,0.12 0.24,0 0.12,0.12 0.12,0 0.12,0.12 0.12,0 0.12,0.12 0.24,0 0.12,0.12 0.12,0 0.12,0.12 0.12,0 0.12,0.12 0.12,0 0.12,0.12 0.24,0 0.12,0.12 0.12,0 0.12,0.12 0.12,0 0.12,0.12 0.12,0 0.12,0.12 0.12,0 0.12,0.12 0.12,0 0.12,0.12 0.12,0 0.12,0.12 0.12,0 0.12,0.12 0.12,0 0.12,0.12 0.12,0 0.12,0.12 0.12,0 0.12,0.12 0.12,0 0.12,0.12 0.12,0 0.12,0.12 0.12,0 0.12,0.12 0.12,0 0.12,0.12 0.12,0 0.12,0.12 0.12,0 0.12,0.12 0.12,0 0.12,0.12 0.12,0 0.12,0.12 0.12,0 0.12,0.12 0.12,0 0.12,0.12 0.12,0 0.12,0.12 0.12,0.12 0.12,0 0.12,0.12 0.12,0 0.12,0.12 0.12,0 0.12,0.12 0.12,0 0.12,0.12 0.12,0.12 0.12,0 0.12,0.12 0.12,0 0.12,0.12 0.12,0 0.12,0.12 0.12,0 0.12,0.12 0.12,0.12 0.12,0 0.12,0.12 0.12,0 0.12,0.12 0.12,0.12 0.12,0 0.12,0.12 0.12,0 0.12,0.12 0.12,0 0.12,0.12 0.12,0.12 0.12,0 0.12,0.12 0.12,0 0.12,0.12" /><path
   id="path3865"
   style="fill:none;stroke:#0000ff;stroke-width:1.30000000000000004;stroke-linecap:butt;stroke-linejoin:round;stroke-miterlimit:10;stroke-opacity:1;stroke-dasharray:none;stroke-dashoffset:0"
   d="m 184.2,278.64 0.48,0 0.12,0.12 0.6,0 0.12,0.12 0.6,0 0.12,0.12 0.48,0 0.12,0.12 0.48,0 0.12,0.12 0.48,0 0.12,0.12 0.36,0 0.12,0.12 0.36,0 0.12,0.12 0.36,0 0.12,0.12 0.36,0 0.12,0.12 0.24,0 0.12,0.12 0.36,0 0.12,0.12 0.24,0 0.12,0.12 0.24,0 0.12,0.12 0.24,0 0.12,0.12 0.36,0 0.12,0.12 0.24,0 0.12,0.12 0.12,0 0.12,0.12 0.24,0 0.12,0.12 0.24,0 0.12,0.12 0.24,0 0.12,0.12 0.24,0 0.12,0.12 0.12,0 0.12,0.12 0.24,0 0.12,0.12 0.12,0 0.12,0.12 0.24,0 0.12,0.12 0.24,0 0.12,0.12 0.12,0" /><path
   id="path3867"
   style="fill:none;stroke:#0000ff;stroke-width:1.30000000000000004;stroke-linecap:butt;stroke-linejoin:round;stroke-miterlimit:10;stroke-opacity:1;stroke-dasharray:none;stroke-dashoffset:0"
   d="m 172.32,278.88 0.12,0 0.12,-0.12 0.6,0 0.12,-0.12 0.72,0 0.12,-0.12 0.96,0 0.12,-0.12 1.44,0 0.12,-0.12 4.44,0 0.12,0.12 1.32,0 0.12,0.12 0.96,0 0.12,0.12 0.36,0" /><path
   id="path3869"
   style="fill:none;stroke:#0000ff;stroke-width:1.30000000000000004;stroke-linecap:butt;stroke-linejoin:round;stroke-miterlimit:10;stroke-opacity:1;stroke-dasharray:none;stroke-dashoffset:0"
   d="m 160.44,282.48 0.12,0 0.12,-0.12 0.24,0 0.12,-0.12 0.12,0 0.12,-0.12 0.24,0 0.12,-0.12 0.12,0 0.12,-0.12 0.12,0 0.12,-0.12 0.24,0 0.12,-0.12 0.12,0 0.12,-0.12 0.24,0 0.12,-0.12 0.24,0 0.12,-0.12 0.12,0 0.12,-0.12 0.24,0 0.12,-0.12 0.24,0 0.12,-0.12 0.24,0 0.12,-0.12 0.12,0 0.12,-0.12 0.24,0 0.12,-0.12 0.24,0 0.12,-0.12 0.24,0 0.12,-0.12 0.36,0 0.12,-0.12 0.24,0 0.12,-0.12 0.24,0 0.12,-0.12 0.36,0 0.12,-0.12 0.24,0 0.12,-0.12 0.36,0 0.12,-0.12 0.36,0 0.12,-0.12 0.36,0 0.12,-0.12 0.36,0 0.12,-0.12 0.48,0 0.12,-0.12 0.48,0 0.12,-0.12 0.48,0 0.12,-0.12 0.48,0" /><path
   id="path3871"
   style="fill:none;stroke:#0000ff;stroke-width:1.30000000000000004;stroke-linecap:butt;stroke-linejoin:round;stroke-miterlimit:10;stroke-opacity:1;stroke-dasharray:none;stroke-dashoffset:0"
   d="m 148.56,288.84 0.12,0 0.12,-0.12 0.12,-0.12 0.12,0 0.12,-0.12 0.12,0 0.12,-0.12 0.12,-0.12 0.12,0 0.12,-0.12 0.12,0 0.12,-0.12 0.12,-0.12 0.12,0 0.12,-0.12 0.12,0 0.12,-0.12 0.12,-0.12 0.12,0 0.12,-0.12 0.12,0 0.12,-0.12 0.12,-0.12 0.12,0 0.12,-0.12 0.12,0 0.12,-0.12 0.12,0 0.12,-0.12 0.12,-0.12 0.12,0 0.12,-0.12 0.12,0 0.12,-0.12 0.12,0 0.12,-0.12 0.12,-0.12 0.12,0 0.12,-0.12 0.12,0 0.12,-0.12 0.12,0 0.12,-0.12 0.12,0 0.12,-0.12 0.12,0 0.12,-0.12 0.12,-0.12 0.12,0 0.12,-0.12 0.12,0 0.12,-0.12 0.12,0 0.12,-0.12 0.12,0 0.12,-0.12 0.12,0 0.12,-0.12 0.12,0 0.12,-0.12 0.12,0 0.12,-0.12 0.12,0 0.12,-0.12 0.12,-0.12 0.12,0 0.12,-0.12 0.12,0 0.12,-0.12 0.12,0 0.12,-0.12 0.12,0 0.12,-0.12 0.12,0 0.12,-0.12 0.24,0 0.12,-0.12 0.12,0 0.12,-0.12 0.12,0 0.12,-0.12 0.12,0 0.12,-0.12 0.12,0 0.12,-0.12 0.12,0 0.12,-0.12 0.12,0 0.12,-0.12 0.12,0 0.12,-0.12 0.24,0 0.12,-0.12 0.12,0 0.12,-0.12 0.12,0 0.12,-0.12" /><path
   id="path3873"
   style="fill:none;stroke:#0000ff;stroke-width:1.30000000000000004;stroke-linecap:butt;stroke-linejoin:round;stroke-miterlimit:10;stroke-opacity:1;stroke-dasharray:none;stroke-dashoffset:0"
   d="m 139.44,294.72 -0.12,0 0.12,0 0.12,-0.12 0.12,-0.12 0.12,0 0.12,-0.12 0.12,0 0.12,-0.12 0.12,-0.12 0.12,0 0.12,-0.12 0.12,-0.12 0.12,0 0.12,-0.12 0.12,-0.12 0.12,0 0.12,-0.12 0.12,-0.12 0.12,0 0.12,-0.12 0.12,-0.12 0.12,0 0.12,-0.12 0.12,-0.12 0.12,0 0.12,-0.12 0.12,-0.12 0.12,0 0.12,-0.12 0.12,0 0.12,-0.12 0.12,-0.12 0.12,0 0.12,-0.12 0.12,-0.12 0.12,0 0.12,-0.12 0.12,-0.12 0.12,0 0.12,-0.12 0.12,-0.12 0.12,0 0.12,-0.12 0.12,0 0.12,-0.12 0.12,-0.12 0.12,0 0.12,-0.12 0.12,-0.12 0.12,0 0.12,-0.12 0.12,-0.12 0.12,0 0.12,-0.12 0.12,0 0.12,-0.12 0.12,-0.12 0.12,0 0.12,-0.12 0.12,-0.12 0.12,0 0.12,-0.12 0.12,-0.12 0.12,0 0.12,-0.12 0.12,0 0.12,-0.12 0.12,-0.12 0.12,0 0.12,-0.12 0.12,0 0.12,-0.12 0.12,-0.12 0.12,0 0.12,-0.12 0.12,-0.12 0.12,0 0.12,-0.12" /><path
   id="path3875"
   style="fill:none;stroke:#ff0000;stroke-width:1.30000000000000004;stroke-linecap:butt;stroke-linejoin:round;stroke-miterlimit:10;stroke-opacity:1;stroke-dasharray:none"
   d="m 445.56,295.32 1.2,0 0.12,-0.12 1.56,0 0.12,-0.12 2.04,0 0.12,-0.12 3,0 0.12,-0.12 3.6,0" /><path
   id="path3877"
   style="fill:none;stroke:#ff0000;stroke-width:1.30000000000000004;stroke-linecap:butt;stroke-linejoin:round;stroke-miterlimit:10;stroke-opacity:1;stroke-dasharray:none"
   d="m 433.68,296.76 0.48,0 0.12,-0.12 0.72,0 0.12,-0.12 0.72,0 0.12,-0.12 0.72,0 0.12,-0.12 0.84,0 0.12,-0.12 0.84,0 0.12,-0.12 0.84,0 0.12,-0.12 0.84,0 0.12,-0.12 0.96,0 0.12,-0.12 1.08,0 0.12,-0.12 1.08,0 0.12,-0.12 1.2,0 0.12,-0.12 0.12,0" /><path
   id="path3879"
   style="fill:none;stroke:#ff0000;stroke-width:1.30000000000000004;stroke-linecap:butt;stroke-linejoin:round;stroke-miterlimit:10;stroke-opacity:1;stroke-dasharray:none"
   d="m 421.8,298.8 0.12,-0.12 0.6,0 0.12,-0.12 0.6,0 0.12,-0.12 0.48,0 0.12,-0.12 0.6,0 0.12,-0.12 0.6,0 0.12,-0.12 0.6,0 0.12,-0.12 0.48,0 0.12,-0.12 0.6,0 0.12,-0.12 0.6,0 0.12,-0.12 0.6,0 0.12,-0.12 0.6,0 0.12,-0.12 0.72,0 0.12,-0.12 0.6,0 0.12,-0.12 0.6,0 0.12,-0.12 0.72,0 0.12,-0.12 0.6,0 0.12,-0.12 0.24,0" /><path
   id="path3881"
   style="fill:none;stroke:#ff0000;stroke-width:1.30000000000000004;stroke-linecap:butt;stroke-linejoin:round;stroke-miterlimit:10;stroke-opacity:1;stroke-dasharray:none"
   d="m 409.92,300.84 0.24,0 0.12,-0.12 0.6,0 0.12,-0.12 0.6,0 0.12,-0.12 0.6,0 0.12,-0.12 0.6,0 0.12,-0.12 0.48,0 0.12,-0.12 0.6,0 0.12,-0.12 0.6,0 0.12,-0.12 0.6,0 0.12,-0.12 0.48,0 0.12,-0.12 0.6,0 0.12,-0.12 0.48,0 0.12,-0.12 0.6,0 0.12,-0.12 0.6,0 0.12,-0.12 0.48,0 0.12,-0.12 0.6,0 0.12,-0.12 0.6,0 0.12,-0.12 0.48,0" /><path
   id="path3883"
   style="fill:none;stroke:#ff0000;stroke-width:1.30000000000000004;stroke-linecap:butt;stroke-linejoin:round;stroke-miterlimit:10;stroke-opacity:1;stroke-dasharray:none"
   d="m 398.04,302.52 0.6,0 0.12,-0.12 0.84,0 0.12,-0.12 0.84,0 0.12,-0.12 0.72,0 0.12,-0.12 0.84,0 0.12,-0.12 0.72,0 0.12,-0.12 0.72,0 0.12,-0.12 0.6,0 0.12,-0.12 0.72,0 0.12,-0.12 0.72,0 0.12,-0.12 0.6,0 0.12,-0.12 0.6,0 0.12,-0.12 0.72,0 0.12,-0.12 0.6,0 0.12,-0.12 0.36,0" /><path
   id="path3885"
   style="fill:none;stroke:#ff0000;stroke-width:1.30000000000000004;stroke-linecap:butt;stroke-linejoin:round;stroke-miterlimit:10;stroke-opacity:1;stroke-dasharray:none"
   d="m 386.16,303.6 0.12,0 0.12,-0.12 1.92,0 0.12,-0.12 1.68,0 0.12,-0.12 1.32,0 0.12,-0.12 1.32,0 0.12,-0.12 1.08,0 0.12,-0.12 1.08,0 0.12,-0.12 1.08,0 0.12,-0.12 0.84,0 0.12,-0.12 0.36,0" /><path
   id="path3887"
   style="fill:none;stroke:#ff0000;stroke-width:1.30000000000000004;stroke-linecap:butt;stroke-linejoin:round;stroke-miterlimit:10;stroke-opacity:1;stroke-dasharray:none"
   d="m 374.28,303.72 9.12,0 0.12,-0.12 2.64,0" /><path
   id="path3889"
   style="fill:none;stroke:#ff0000;stroke-width:1.30000000000000004;stroke-linecap:butt;stroke-linejoin:round;stroke-miterlimit:10;stroke-opacity:1;stroke-dasharray:none"
   d="m 362.4,303.12 0.84,0 0.12,0.12 1.56,0 0.12,0.12 1.8,0 0.12,0.12 2.16,0 0.12,0.12 2.76,0 0.12,0.12 2.16,0" /><path
   id="path3891"
   style="fill:none;stroke:#ff0000;stroke-width:1.30000000000000004;stroke-linecap:butt;stroke-linejoin:round;stroke-miterlimit:10;stroke-opacity:1;stroke-dasharray:none"
   d="m 350.52,301.92 0.24,0 0.12,0.12 0.96,0 0.12,0.12 0.96,0 0.12,0.12 1.08,0 0.12,0.12 0.96,0 0.12,0.12 1.08,0 0.12,0.12 1.08,0 0.12,0.12 1.2,0 0.12,0.12 1.2,0 0.12,0.12 1.32,0 0.12,0.12 0.6,0" /><path
   id="path3893"
   style="fill:none;stroke:#ff0000;stroke-width:1.30000000000000004;stroke-linecap:butt;stroke-linejoin:round;stroke-miterlimit:10;stroke-opacity:1;stroke-dasharray:none"
   d="m 338.64,300.48 0.12,0 0.12,0.12 0.84,0 0.12,0.12 0.84,0 0.12,0.12 0.84,0 0.12,0.12 0.96,0 0.12,0.12 0.84,0 0.12,0.12 0.84,0 0.12,0.12 0.84,0 0.12,0.12 0.96,0 0.12,0.12 0.84,0 0.12,0.12 0.96,0 0.12,0.12 0.84,0 0.12,0.12 0.72,0" /><path
   id="path3895"
   style="fill:none;stroke:#ff0000;stroke-width:1.30000000000000004;stroke-linecap:butt;stroke-linejoin:round;stroke-miterlimit:10;stroke-opacity:1;stroke-dasharray:none"
   d="m 326.76,299.16 0.48,0 0.12,0.12 1.08,0 0.12,0.12 0.96,0 0.12,0.12 0.96,0 0.12,0.12 0.96,0 0.12,0.12 0.84,0 0.12,0.12 0.96,0 0.12,0.12 0.96,0 0.12,0.12 0.84,0 0.12,0.12 0.84,0 0.12,0.12 0.96,0 0.12,0.12 0.72,0" /><path
   id="path3897"
   style="fill:none;stroke:#ff0000;stroke-width:1.30000000000000004;stroke-linecap:butt;stroke-linejoin:round;stroke-miterlimit:10;stroke-opacity:1;stroke-dasharray:none"
   d="m 314.88,298.08 0.24,0 0.12,0.12 1.56,0 0.12,0.12 1.44,0 0.12,0.12 1.32,0 0.12,0.12 1.2,0 0.12,0.12 1.2,0 0.12,0.12 1.2,0 0.12,0.12 1.08,0 0.12,0.12 1.08,0 0.12,0.12 0.48,0" /><path
   id="path3899"
   style="fill:none;stroke:#ff0000;stroke-width:1.30000000000000004;stroke-linecap:butt;stroke-linejoin:round;stroke-miterlimit:10;stroke-opacity:1;stroke-dasharray:none"
   d="m 303,297.6 2.64,0 0.12,0.12 3.12,0 0.12,0.12 2.28,0 0.12,0.12 1.92,0 0.12,0.12 1.44,0" /><path
   id="path3901"
   style="fill:none;stroke:#ff0000;stroke-width:1.30000000000000004;stroke-linecap:butt;stroke-linejoin:round;stroke-miterlimit:10;stroke-opacity:1;stroke-dasharray:none"
   d="m 291.12,297.6 6.84,0 0.12,-0.12 0.36,0 0.12,0.12 4.44,0" /><path
   id="path3903"
   style="fill:none;stroke:#ff0000;stroke-width:1.30000000000000004;stroke-linecap:butt;stroke-linejoin:round;stroke-miterlimit:10;stroke-opacity:1;stroke-dasharray:none"
   d="m 279.24,298.32 0.48,0 0.12,-0.12 1.44,0 0.12,-0.12 1.8,0 0.12,-0.12 1.92,0 0.12,-0.12 2.28,0 0.12,-0.12 3,0 0.12,-0.12 0.24,0" /><path
   id="path3905"
   style="fill:none;stroke:#ff0000;stroke-width:1.30000000000000004;stroke-linecap:butt;stroke-linejoin:round;stroke-miterlimit:10;stroke-opacity:1;stroke-dasharray:none"
   d="m 267.36,299.4 0.72,0 0.12,-0.12 0.96,0 0.12,-0.12 1.08,0 0.12,-0.12 1.08,0 0.12,-0.12 1.08,0 0.12,-0.12 1.08,0 0.12,-0.12 1.2,0 0.12,-0.12 1.32,0 0.12,-0.12 1.32,0 0.12,-0.12 0.96,0" /><path
   id="path3907"
   style="fill:none;stroke:#ff0000;stroke-width:1.30000000000000004;stroke-linecap:butt;stroke-linejoin:round;stroke-miterlimit:10;stroke-opacity:1;stroke-dasharray:none"
   d="m 255.48,300.84 0.24,0 0.12,-0.12 0.84,0 0.12,-0.12 0.96,0 0.12,-0.12 0.84,0 0.12,-0.12 0.84,0 0.12,-0.12 0.96,0 0.12,-0.12 0.84,0 0.12,-0.12 0.84,0 0.12,-0.12 0.96,0 0.12,-0.12 0.96,0 0.12,-0.12 0.96,0 0.12,-0.12 0.96,0 0.12,-0.12 0.24,0" /><path
   id="path3909"
   style="fill:none;stroke:#ff0000;stroke-width:1.30000000000000004;stroke-linecap:butt;stroke-linejoin:round;stroke-miterlimit:10;stroke-opacity:1;stroke-dasharray:none"
   d="m 243.6,302.16 0.96,0 0.12,-0.12 0.96,0 0.12,-0.12 0.96,0 0.12,-0.12 0.96,0 0.12,-0.12 0.84,0 0.12,-0.12 0.96,0 0.12,-0.12 0.84,0 0.12,-0.12 0.84,0 0.12,-0.12 0.96,0 0.12,-0.12 0.84,0 0.12,-0.12 0.84,0 0.12,-0.12 0.6,0" /><path
   id="path3911"
   style="fill:none;stroke:#ff0000;stroke-width:1.30000000000000004;stroke-linecap:butt;stroke-linejoin:round;stroke-miterlimit:10;stroke-opacity:1;stroke-dasharray:none"
   d="m 231.72,303.24 1.44,0 0.12,-0.12 1.44,0 0.12,-0.12 1.32,0 0.12,-0.12 1.2,0 0.12,-0.12 1.2,0 0.12,-0.12 1.08,0 0.12,-0.12 1.08,0 0.12,-0.12 1.08,0 0.12,-0.12 0.96,0 0.12,-0.12" /><path
   id="path3913"
   style="fill:none;stroke:#ff0000;stroke-width:1.30000000000000004;stroke-linecap:butt;stroke-linejoin:round;stroke-miterlimit:10;stroke-opacity:1;stroke-dasharray:none"
   d="m 219.84,303.72 4.56,0 0.12,-0.12 2.88,0 0.12,-0.12 2.16,0 0.12,-0.12 1.68,0 0.12,-0.12 0.12,0" /><path
   id="path3915"
   style="fill:none;stroke:#ff0000;stroke-width:1.30000000000000004;stroke-linecap:butt;stroke-linejoin:round;stroke-miterlimit:10;stroke-opacity:1;stroke-dasharray:none"
   d="m 207.96,303.36 0.24,0 0.12,0.12 1.92,0 0.12,0.12 2.76,0 0.12,0.12 6.6,0" /><path
   id="path3917"
   style="fill:none;stroke:#ff0000;stroke-width:1.30000000000000004;stroke-linecap:butt;stroke-linejoin:round;stroke-miterlimit:10;stroke-opacity:1;stroke-dasharray:none"
   d="m 196.08,302.28 0.84,0 0.12,0.12 0.84,0 0.12,0.12 0.84,0 0.12,0.12 0.96,0 0.12,0.12 0.96,0 0.12,0.12 1.08,0 0.12,0.12 1.2,0 0.12,0.12 1.2,0 0.12,0.12 1.44,0 0.12,0.12 1.44,0" /><path
   id="path3919"
   style="fill:none;stroke:#ff0000;stroke-width:1.30000000000000004;stroke-linecap:butt;stroke-linejoin:round;stroke-miterlimit:10;stroke-opacity:1;stroke-dasharray:none"
   d="m 184.2,300.36 0.12,0.12 0.6,0 0.12,0.12 0.6,0 0.12,0.12 0.6,0 0.12,0.12 0.6,0 0.12,0.12 0.6,0 0.12,0.12 0.6,0 0.12,0.12 0.6,0 0.12,0.12 0.72,0 0.12,0.12 0.6,0 0.12,0.12 0.72,0 0.12,0.12 0.72,0 0.12,0.12 0.72,0 0.12,0.12 0.72,0 0.12,0.12 0.72,0 0.12,0.12 0.84,0 0.12,0.12" /><path
   id="path3921"
   style="fill:none;stroke:#ff0000;stroke-width:1.30000000000000004;stroke-linecap:butt;stroke-linejoin:round;stroke-miterlimit:10;stroke-opacity:1;stroke-dasharray:none"
   d="m 172.32,298.32 0.24,0 0.12,0.12 0.6,0 0.12,0.12 0.6,0 0.12,0.12 0.48,0 0.12,0.12 0.6,0 0.12,0.12 0.6,0 0.12,0.12 0.48,0 0.12,0.12 0.6,0 0.12,0.12 0.48,0 0.12,0.12 0.6,0 0.12,0.12 0.6,0 0.12,0.12 0.48,0 0.12,0.12 0.6,0 0.12,0.12 0.6,0 0.12,0.12 0.48,0 0.12,0.12 0.6,0 0.12,0.12 0.6,0 0.12,0.12 0.6,0" /><path
   id="path3923"
   style="fill:none;stroke:#ff0000;stroke-width:1.30000000000000004;stroke-linecap:butt;stroke-linejoin:round;stroke-miterlimit:10;stroke-opacity:1;stroke-dasharray:none"
   d="m 160.44,296.4 0.24,0 0.12,0.12 0.72,0 0.12,0.12 0.72,0 0.12,0.12 0.6,0 0.12,0.12 0.72,0 0.12,0.12 0.6,0 0.12,0.12 0.72,0 0.12,0.12 0.6,0 0.12,0.12 0.6,0 0.12,0.12 0.6,0 0.12,0.12 0.6,0 0.12,0.12 0.6,0 0.12,0.12 0.6,0 0.12,0.12 0.6,0 0.12,0.12 0.6,0 0.12,0.12 0.6,0 0.12,0.12 0.24,0" /><path
   id="path3925"
   style="fill:none;stroke:#ff0000;stroke-width:1.30000000000000004;stroke-linecap:butt;stroke-linejoin:round;stroke-miterlimit:10;stroke-opacity:1;stroke-dasharray:none"
   d="m 148.56,295.2 1.08,0 0.12,0.12 1.44,0 0.12,0.12 1.2,0 0.12,0.12 1.08,0 0.12,0.12 0.96,0 0.12,0.12 0.96,0 0.12,0.12 0.96,0 0.12,0.12 0.84,0 0.12,0.12 0.84,0 0.12,0.12 0.72,0 0.12,0.12 0.6,0" /><path
   id="path3927"
   style="fill:none;stroke:#ff0000;stroke-width:1.30000000000000004;stroke-linecap:butt;stroke-linejoin:round;stroke-miterlimit:10;stroke-opacity:1;stroke-dasharray:none"
   d="m 139.32,294.84 3.36,0 0.12,0.12 3.12,0 0.12,0.12 1.92,0 0.12,0.12 0.48,0" /><g
   id="g3929"
   transform="matrix(0.1,0,0,0.1,0,-112)"><g
     clip-path="url(#clipPath3933)"
     id="g3931"><g
       transform="scale(10,10)"
       id="g3937" /><path
       id="path3939"
       style="fill:#ffffff;fill-opacity:1;fill-rule:evenodd;stroke:none"
       d="m 1442.4,4939.2 1272,0 0,399.602 -1272,0 0,-399.602 z" /><path
       id="path3941"
       style="fill:none;stroke:#ffffff;stroke-width:5.00001001;stroke-linecap:butt;stroke-linejoin:round;stroke-miterlimit:10;stroke-opacity:1;stroke-dasharray:none"
       d="m 1442.4,4939.2 0,399.6 1272,0 0,-399.6 -1272,0" /><path
       id="path3943"
       style="fill:none;stroke:#000000;stroke-width:5.00001001;stroke-linecap:butt;stroke-linejoin:round;stroke-miterlimit:10;stroke-opacity:1;stroke-dasharray:none"
       d="m 1442.4,4939.2 1272,0" /><path
       id="path3945"
       style="fill:none;stroke:#000000;stroke-width:5.00001001;stroke-linecap:butt;stroke-linejoin:round;stroke-miterlimit:10;stroke-opacity:1;stroke-dasharray:none"
       d="m 1442.4,5338.8 1272,0" /><path
       id="path3947"
       style="fill:none;stroke:#000000;stroke-width:5.00001001;stroke-linecap:butt;stroke-linejoin:round;stroke-miterlimit:10;stroke-opacity:1;stroke-dasharray:none"
       d="m 1442.4,4939.2 0,399.6" /><path
       id="path3949"
       style="fill:none;stroke:#000000;stroke-width:5.00001001;stroke-linecap:butt;stroke-linejoin:round;stroke-miterlimit:10;stroke-opacity:1;stroke-dasharray:none"
       d="m 2714.4,4939.2 0,399.6" /><path
       id="path3951"
       style="fill:none;stroke:#000000;stroke-width:5.00001001;stroke-linecap:butt;stroke-linejoin:round;stroke-miterlimit:10;stroke-opacity:1;stroke-dasharray:none"
       d="m 1442.4,4939.2 1272,0" /><path
       id="path3953"
       style="fill:none;stroke:#000000;stroke-width:5.00001001;stroke-linecap:butt;stroke-linejoin:round;stroke-miterlimit:10;stroke-opacity:1;stroke-dasharray:none"
       d="m 1442.4,4939.2 0,399.6" /><path
       id="path3955"
       style="fill:none;stroke:#000000;stroke-width:5.00001001;stroke-linecap:butt;stroke-linejoin:round;stroke-miterlimit:10;stroke-opacity:1;stroke-dasharray:none"
       d="m 1442.4,4939.2 1272,0" /><path
       id="path3957"
       style="fill:none;stroke:#000000;stroke-width:5.00001001;stroke-linecap:butt;stroke-linejoin:round;stroke-miterlimit:10;stroke-opacity:1;stroke-dasharray:none"
       d="m 1442.4,5338.8 1272,0" /><path
       id="path3959"
       style="fill:none;stroke:#000000;stroke-width:5.00001001;stroke-linecap:butt;stroke-linejoin:round;stroke-miterlimit:10;stroke-opacity:1;stroke-dasharray:none"
       d="m 1442.4,4939.2 0,399.6" /><path
       id="path3961"
       style="fill:none;stroke:#000000;stroke-width:5.00001001;stroke-linecap:butt;stroke-linejoin:round;stroke-miterlimit:10;stroke-opacity:1;stroke-dasharray:none"
       d="m 2714.4,4939.2 0,399.6" /><g
       transform="scale(10,10)"
       id="g3963"><text
   id="text3965"
   transform="matrix(1,0,0,-1,182.88,522.72)"><tspan
     id="tspan3967"
     sodipodi:role="line"
     y="0"
     x="0 6.6700001 11.67 17.23 19.450001 21.67 26.67 28.889999 31.67 34.450001 41.119999 46.68 48.900002 54.459999"
     style="font-size:10px;font-variant:normal;font-weight:normal;writing-mode:lr-tb;fill:#000000;fill-opacity:1;fill-rule:nonzero;stroke:none;font-family:Helvetica;-inkscape-font-specification:Helvetica">Explizit Euler</tspan></text>

</g></g></g><path
   id="path3977"
   style="fill:none;stroke:#00ff00;stroke-width:1.3;stroke-linecap:butt;stroke-linejoin:round;stroke-miterlimit:10;stroke-opacity:1;stroke-dasharray:none;stroke-dashoffset:0"
   d="m 150.12,414.44 29.76,0" /><g
   id="g3979"
   transform="matrix(0.1,0,0,0.1,0,-112)"><g
     clip-path="url(#clipPath3983)"
     id="g3981"><g
       transform="scale(10,10)"
       id="g3987"><text
   id="text3989"
   transform="matrix(1,0,0,-1,182.88,510.24)"><tspan
     id="tspan3991"
     sodipodi:role="line"
     y="0"
     x="0 6.6700001 11.67 20 25.559999 27.780001 33.34 38.34 41.119999 43.34 48.34 53.34 58.900002 61.68 68.349998 73.910004 76.129997 81.690002"
     style="font-size:10px;font-variant:normal;font-weight:normal;writing-mode:lr-tb;fill:#000000;fill-opacity:1;fill-rule:nonzero;stroke:none;font-family:Helvetica;-inkscape-font-specification:Helvetica">Symplektisch Euler</tspan></text>

</g></g></g><path
   id="path4001"
   style="fill:none;stroke:#0000ff;stroke-width:1.3;stroke-linecap:butt;stroke-linejoin:round;stroke-miterlimit:10;stroke-opacity:1;stroke-dasharray:none;stroke-dashoffset:0"
   d="m 150.12,401.96 29.76,0" /><g
   id="g4003"
   transform="matrix(0.1,0,0,0.1,0,-112)"><g
     clip-path="url(#clipPath4007)"
     id="g4005"><g
       transform="scale(10,10)"
       id="g4011"><text
   id="text4013"
   transform="matrix(1,0,0,-1,182.88,497.76)"><tspan
     id="tspan4015"
     sodipodi:role="line"
     y="0"
     x="0 6.6700001 9.4499998 12.78 18.34 23.9 29.459999 32.240002 38.91 44.470001 46.689999 48.91 51.689999 54.470001 56.689999 62.25"
     style="font-size:10px;font-variant:normal;font-weight:normal;writing-mode:lr-tb;fill:#000000;fill-opacity:1;fill-rule:nonzero;stroke:none;font-family:Helvetica;-inkscape-font-specification:Helvetica">Strang Splitting</tspan></text>

</g></g></g><path
   id="path4025"
   style="fill:none;stroke:#ff0000;stroke-width:1.3;stroke-linecap:butt;stroke-linejoin:round;stroke-miterlimit:10;stroke-opacity:1;stroke-dasharray:none"
   d="m 150.12,389.48 29.76,0" /></g></svg>